<?xml version="1.0" encoding="utf-8"?>
<!-- Generator: Adobe Illustrator 18.1.1, SVG Export Plug-In . SVG Version: 6.00 Build 0)  -->
<svg version="1.1" id="Layer_1" xmlns="http://www.w3.org/2000/svg" xmlns:xlink="http://www.w3.org/1999/xlink" x="0px" y="0px"
	 width="24px" height="24px" viewBox="0 0 24 24" enable-background="new 0 0 24 24" xml:space="preserve">
<path fill="#666666" d="M21,4.5H3c-0.4,0-0.8,0.3-0.8,0.8S2.6,6,3,6h0.8l1.5,18h13.5l1.5-18H21c0.4,0,0.8-0.3,0.8-0.8
	S21.4,4.5,21,4.5z M17.6,22.5H6.4L5,6h14L17.6,22.5z M3,3h18c0.4,0,0.8-0.3,0.8-0.8S21.4,1.5,21,1.5h-6.8c0-0.8-0.7-1.5-1.5-1.5
	h-1.5c-0.8,0-1.5,0.7-1.5,1.5H3c-0.4,0-0.8,0.3-0.8,0.8S2.6,3,3,3z M9,19.5c0.4,0,0.7-0.4,0.7-0.8l-0.5-9C9.2,9.3,8.9,9,8.5,9
	S7.7,9.4,7.7,9.8l0.5,9C8.2,19.2,8.6,19.5,9,19.5z M12,19.5c0.4,0,0.8-0.3,0.8-0.8v-9C12.8,9.3,12.4,9,12,9c-0.4,0-0.8,0.3-0.8,0.8
	v9C11.2,19.2,11.6,19.5,12,19.5z M15,19.5c0.4,0,0.8-0.3,0.8-0.7l0.5-9C16.3,9.4,16,9,15.5,9s-0.8,0.3-0.8,0.7l-0.5,9
	C14.3,19.1,14.6,19.5,15,19.5z"/>
</svg>
