<?xml version="1.0" encoding="utf-8"?>
<!-- Generator: Adobe Illustrator 18.1.1, SVG Export Plug-In . SVG Version: 6.00 Build 0)  -->
<svg version="1.1" id="Layer_1" xmlns="http://www.w3.org/2000/svg" xmlns:xlink="http://www.w3.org/1999/xlink" x="0px" y="0px"
	 width="24px" height="24px" viewBox="0 0 24 24" enable-background="new 0 0 24 24" xml:space="preserve">
<path id="XMLID_858_" opacity="0.8" fill="#666666" d="M23.2,1.9c0.3-0.3,1-0.1,1,0.4v7.3c0,0.3-0.4,0.5-0.7,0.5h-7.3
	c-0.4,0-0.7-0.5-0.4-0.9l2.3-2.3C16.7,5.1,14.5,4,12,4C8.6,4,5.6,6.2,4.5,9.2c-0.2,0.4-0.6,0.6-1,0.4L1.2,8.5C0.9,8.4,0.7,8,0.8,7.6
	C2.6,3.2,6.9,0,12,0c3.6,0,6.8,1.6,9,4L23.2,1.9z M3,20c2.2,2.5,5.4,4,9,4c5.1,0,9.4-3.2,11.2-7.6c0.1-0.4,0-0.8-0.4-0.9l-2.3-1.1
	c-0.4-0.2-0.9,0-1,0.4C18.4,17.8,15.4,20,12,20c-2.5,0-4.7-1.1-6.1-2.9l2.3-2.3C8.5,14.5,8.2,14,7.8,14H0.5c-0.3,0-0.3,0.2-0.3,0.5
	v7.3c0,0.4,0.4,0.7,0.8,0.4L3,20z"/>
</svg>
