<?xml version="1.0" encoding="utf-8"?>
<!-- Generator: Adobe Illustrator 16.0.0, SVG Export Plug-In . SVG Version: 6.00 Build 0)  -->
<!DOCTYPE svg PUBLIC "-//W3C//DTD SVG 1.1//EN" "http://www.w3.org/Graphics/SVG/1.1/DTD/svg11.dtd">
<svg version="1.1" id="Layer_1" xmlns="http://www.w3.org/2000/svg" xmlns:xlink="http://www.w3.org/1999/xlink" x="0px" y="0px"
	 width="21px" height="21px" viewBox="0 0 21 21" enable-background="new 0 0 21 21" xml:space="preserve">
<path display="none" fill="#666666" d="M10.5,0C16.299,0,21,4.701,21,10.5S16.299,21,10.5,21C4.702,21,0,16.299,0,10.5
	S4.702,0,10.5,0z"/>
<g>
	<path fill="#FFFFFF" d="M9.631,12.088c-0.047-0.332-0.035-0.637,0.034-0.912c0.069-0.277,0.17-0.531,0.305-0.762
		c0.133-0.23,0.286-0.445,0.456-0.643c0.171-0.198,0.332-0.392,0.484-0.581C11.062,9,11.189,8.814,11.29,8.629
		c0.103-0.184,0.153-0.383,0.153-0.595c0-0.332-0.101-0.599-0.299-0.802c-0.199-0.203-0.473-0.304-0.823-0.304
		c-0.286,0-0.544,0.064-0.775,0.193C9.317,7.251,9.101,7.425,8.897,7.647L8.012,6.832c0.295-0.351,0.646-0.639,1.051-0.865
		s0.862-0.339,1.37-0.339c0.368,0,0.709,0.048,1.024,0.145c0.313,0.097,0.585,0.242,0.816,0.436
		c0.229,0.193,0.407,0.433,0.532,0.719c0.124,0.286,0.187,0.618,0.187,0.996c0,0.295-0.054,0.56-0.159,0.795
		c-0.106,0.235-0.237,0.458-0.395,0.671c-0.156,0.212-0.324,0.415-0.505,0.608c-0.18,0.194-0.341,0.396-0.484,0.609
		c-0.144,0.212-0.258,0.438-0.346,0.677c-0.088,0.24-0.112,0.507-0.076,0.803H9.631z M9.313,14.148c0-0.313,0.097-0.571,0.291-0.774
		c0.193-0.202,0.438-0.304,0.733-0.304s0.542,0.103,0.74,0.304c0.198,0.203,0.298,0.461,0.298,0.774c0,0.314-0.1,0.572-0.298,0.774
		c-0.198,0.204-0.445,0.305-0.74,0.305s-0.54-0.102-0.733-0.305C9.409,14.723,9.313,14.463,9.313,14.148z"/>
</g>
</svg>
