<?xml version="1.0" encoding="utf-8"?>
<!-- Generator: Adobe Illustrator 16.0.0, SVG Export Plug-In . SVG Version: 6.00 Build 0)  -->
<!DOCTYPE svg PUBLIC "-//W3C//DTD SVG 1.1//EN" "http://www.w3.org/Graphics/SVG/1.1/DTD/svg11.dtd">
<svg version="1.1" id="Layer_1" xmlns="http://www.w3.org/2000/svg" xmlns:xlink="http://www.w3.org/1999/xlink" x="0px" y="0px"
	 width="21px" height="21px" viewBox="0 0 21 21" enable-background="new 0 0 21 21" xml:space="preserve">
<path display="none" fill-rule="evenodd" clip-rule="evenodd" fill="#666666" d="M10.5,0C16.299,0,21,4.701,21,10.5
	C21,16.299,16.299,21,10.5,21C4.702,21,0,16.299,0,10.5C0,4.701,4.702,0,10.5,0z"/>
<g>
	<path fill="#FFFFFF" d="M9.368,12.588c-0.061-0.432-0.045-0.828,0.045-1.188c0.09-0.36,0.222-0.69,0.396-0.99
		c0.174-0.3,0.372-0.579,0.594-0.837c0.222-0.258,0.432-0.51,0.63-0.756c0.197-0.246,0.363-0.489,0.494-0.729
		c0.133-0.24,0.199-0.498,0.199-0.774c0-0.432-0.13-0.78-0.388-1.044c-0.259-0.264-0.615-0.396-1.071-0.396
		c-0.372,0-0.708,0.084-1.008,0.252C8.96,6.294,8.678,6.521,8.414,6.81L7.262,5.748C7.646,5.292,8.102,4.917,8.63,4.623
		c0.528-0.294,1.122-0.441,1.782-0.441c0.479,0,0.924,0.063,1.332,0.189s0.762,0.315,1.063,0.567
		c0.299,0.252,0.53,0.564,0.692,0.936s0.243,0.804,0.243,1.296c0,0.384-0.069,0.729-0.207,1.035
		c-0.139,0.306-0.309,0.597-0.514,0.873c-0.203,0.276-0.422,0.54-0.656,0.792s-0.444,0.516-0.631,0.792
		c-0.186,0.276-0.336,0.57-0.449,0.881c-0.114,0.313-0.147,0.66-0.1,1.045H9.368z M8.954,15.27c0-0.408,0.126-0.744,0.378-1.008
		s0.57-0.396,0.954-0.396c0.384,0,0.705,0.133,0.963,0.396c0.258,0.264,0.388,0.6,0.388,1.008s-0.13,0.744-0.388,1.008
		c-0.258,0.264-0.579,0.396-0.963,0.396c-0.384,0-0.702-0.133-0.954-0.396S8.954,15.678,8.954,15.27z"/>
</g>
</svg>
