<?xml version="1.0" encoding="utf-8"?>
<!-- Generator: Adobe Illustrator 16.0.0, SVG Export Plug-In . SVG Version: 6.00 Build 0)  -->
<!DOCTYPE svg PUBLIC "-//W3C//DTD SVG 1.1//EN" "http://www.w3.org/Graphics/SVG/1.1/DTD/svg11.dtd">
<svg version="1.1" id="Layer_1" xmlns="http://www.w3.org/2000/svg" xmlns:xlink="http://www.w3.org/1999/xlink" x="0px" y="0px"
	 width="22px" height="22px" viewBox="0 0 22 22" enable-background="new 0 0 22 22" xml:space="preserve">
<g>
	<g>
		<path fill-rule="evenodd" clip-rule="evenodd" d="M0.329,21.9c-0.191,0-0.238-0.055-0.239-0.244
			c-0.008-1.563-0.026-3.125-0.046-4.689c-0.002-0.148,0.041-0.253,0.146-0.358C5.67,11.131,11.149,5.652,16.625,0.17
			c0.141-0.141,0.207-0.12,0.337,0.009c1.617,1.617,3.24,3.229,4.864,4.84c0.057,0.057,0.098,0.138,0.189,0.154
			c0,0.017,0,0.031,0,0.047c-0.073,0.017-0.108,0.082-0.152,0.128c-5.492,5.487-10.98,10.977-16.469,16.466
			c-0.046,0.047-0.112,0.018-0.128,0.091 M3.054,20.849c0.542,0,1.083-0.005,1.624,0.003c0.125,0.002,0.213-0.03,0.302-0.121
			c3.518-3.521,8.549-8.555,12.071-12.07c0.108-0.109,0.105-0.163-0.001-0.267c-1.145-1.136-2.284-2.276-3.42-3.422
			c-0.122-0.123-0.179-0.111-0.293,0.003c-1.903,1.912-4.497,4.503-6.403,6.409C5.33,12.987,2.9,15.42,1.296,17.023
			c-0.073,0.07-0.139,0.135-0.136,0.257c0.02,1.113,0.036,2.229,0.045,3.345c0.002,0.146,0.047,0.185,0.186,0.184 M16.593,1.707
			c-0.03,0.029-0.055,0.05-0.076,0.072c-0.74,0.747-1.479,1.495-2.221,2.238c-0.09,0.089-0.045,0.133,0.02,0.197
			c1.163,1.16,2.325,2.322,3.485,3.486c0.083,0.083,0.126,0.083,0.209,0c0.723-0.729,1.447-1.454,2.176-2.175
			c0.091-0.09,0.086-0.138-0.002-0.225c-0.337-0.329-0.667-0.667-0.999-1c-0.821-0.827-1.642-1.653-2.466-2.479
			C16.681,1.782,16.636,1.747,16.593,1.707z"/>
	</g>
	<path fill-rule="evenodd" clip-rule="evenodd" fill="none" d="M0.889,21.352c-0.167,0.002-0.221-0.045-0.223-0.218
		c-0.011-1.335-0.03-2.67-0.054-4.002c-0.003-0.146,0.076-0.223,0.163-0.308c1.919-1.919,3.838-3.84,5.758-5.758
		c2.281-2.281,4.563-4.56,6.838-6.847c0.138-0.136,0.206-0.15,0.353-0.004c1.357,1.371,2.722,2.734,4.091,4.094
		c0.126,0.124,0.132,0.189,0.002,0.319c-4.214,4.205-8.425,8.417-12.633,12.631c-0.106,0.107-0.211,0.146-0.361,0.145
		C4.175,21.396,3.527,21.4,2.879,21.4"/>
	<path fill-rule="evenodd" clip-rule="evenodd" fill="none" d="M16.784,0.792c0.052,0.048,0.104,0.09,0.15,0.138
		c0.985,0.988,1.968,1.977,2.95,2.966c0.397,0.398,0.792,0.803,1.194,1.196c0.106,0.104,0.112,0.161,0.003,0.269
		c-0.871,0.862-1.738,1.729-2.603,2.602c-0.1,0.1-0.15,0.1-0.25,0c-1.388-1.394-2.778-2.783-4.17-4.171
		c-0.077-0.077-0.131-0.129-0.022-0.236c0.888-0.889,1.77-1.785,2.655-2.678C16.719,0.853,16.748,0.827,16.784,0.792z"/>
</g>
</svg>
