<?xml version="1.0" encoding="utf-8"?>
<!-- Generator: Adobe Illustrator 16.0.0, SVG Export Plug-In . SVG Version: 6.00 Build 0)  -->
<!DOCTYPE svg PUBLIC "-//W3C//DTD SVG 1.1//EN" "http://www.w3.org/Graphics/SVG/1.1/DTD/svg11.dtd">
<svg version="1.1" id="Layer_1" xmlns="http://www.w3.org/2000/svg" xmlns:xlink="http://www.w3.org/1999/xlink" x="0px" y="0px"
	 width="22px" height="22px" viewBox="0 0 22 22" enable-background="new 0 0 22 22" xml:space="preserve">
<g>
	<path fill-rule="evenodd" clip-rule="evenodd" fill="none" d="M4.854,21.97c-1.563,0-3.127-0.002-4.691,0.004
		C0.027,21.974,0,21.945,0,21.809C0.004,14.594,0.004,7.379,0,0.164C0,0.027,0.027,0,0.164,0c7.231,0.004,14.461,0.004,21.691,0
		c0.137,0,0.165,0.027,0.165,0.164c-0.006,1.67-0.004,3.341-0.004,5.01c-0.092-0.016-0.133-0.098-0.189-0.154
		c-1.624-1.611-3.247-3.223-4.864-4.84c-0.13-0.129-0.196-0.15-0.337-0.009C11.149,5.652,5.67,11.131,0.189,16.608
		c-0.106,0.105-0.149,0.21-0.146,0.358c0.02,1.564,0.039,3.127,0.046,4.689C0.09,21.846,0.137,21.9,0.329,21.9
		c1.41,0.006,2.821,0.024,4.232,0.041C4.659,21.943,4.759,21.931,4.854,21.97z"/>
	<path fill-rule="evenodd" clip-rule="evenodd" fill="none" d="M22.016,5.221c0,5.514-0.002,11.027,0.004,16.544
		c0,0.171-0.039,0.209-0.21,0.209C16.295,21.968,10.78,21.97,5.267,21.97c0.016-0.073,0.082-0.107,0.128-0.154
		c5.489-5.489,10.977-10.979,16.469-16.466C21.907,5.302,21.942,5.237,22.016,5.221z"/>
	<g>
		<path fill-rule="evenodd" clip-rule="evenodd" d="M0.329,21.9c-0.191,0-0.238-0.055-0.239-0.244
			c-0.008-1.563-0.026-3.125-0.046-4.689c-0.002-0.148,0.041-0.253,0.146-0.358C5.67,11.131,11.149,5.652,16.625,0.17
			c0.141-0.141,0.207-0.12,0.337,0.009c1.617,1.617,3.24,3.229,4.864,4.84c0.057,0.057,0.098,0.138,0.189,0.154
			c0,0.017,0,0.031,0,0.047c-0.073,0.017-0.108,0.082-0.152,0.128c-5.492,5.487-10.98,10.977-16.469,16.466
			c-0.046,0.047-0.112,0.018-0.128,0.091 M2.879,21.4c0.648,0,1.296-0.005,1.943,0.004c0.15,0.002,0.255-0.037,0.361-0.145
			c4.208-4.214,8.419-8.426,12.633-12.631c0.13-0.13,0.124-0.195-0.002-0.319c-1.369-1.359-2.733-2.723-4.091-4.094
			c-0.146-0.146-0.215-0.132-0.353,0.004c-2.275,2.287-4.557,4.566-6.838,6.847c-1.92,1.918-3.838,3.839-5.758,5.758
			c-0.087,0.085-0.166,0.161-0.163,0.308c0.024,1.332,0.043,2.667,0.054,4.002c0.002,0.173,0.056,0.22,0.223,0.218 M16.784,0.792
			c-0.036,0.035-0.065,0.06-0.092,0.086c-0.886,0.893-1.768,1.789-2.655,2.678c-0.108,0.106-0.055,0.159,0.022,0.236
			c1.392,1.388,2.782,2.777,4.17,4.171c0.1,0.1,0.15,0.1,0.25,0c0.864-0.873,1.731-1.74,2.603-2.602
			c0.109-0.108,0.104-0.165-0.003-0.269c-0.402-0.393-0.797-0.798-1.194-1.196c-0.982-0.989-1.965-1.978-2.95-2.966
			C16.889,0.883,16.836,0.84,16.784,0.792z"/>
	</g>
	<path fill-rule="evenodd" clip-rule="evenodd" fill="none" d="M0.889,21.352c-0.167,0.002-0.221-0.045-0.223-0.218
		c-0.011-1.335-0.03-2.67-0.054-4.002c-0.003-0.146,0.076-0.223,0.163-0.308c1.919-1.919,3.838-3.84,5.758-5.758
		c2.281-2.281,4.563-4.56,6.838-6.847c0.138-0.136,0.206-0.15,0.353-0.004c1.357,1.371,2.722,2.734,4.091,4.094
		c0.126,0.124,0.132,0.189,0.002,0.319c-4.214,4.205-8.425,8.417-12.633,12.631c-0.106,0.107-0.211,0.146-0.361,0.145
		C4.175,21.396,3.527,21.4,2.879,21.4"/>
	<path fill-rule="evenodd" clip-rule="evenodd" fill="none" d="M16.784,0.792c0.052,0.048,0.104,0.09,0.15,0.138
		c0.985,0.988,1.968,1.977,2.95,2.966c0.397,0.398,0.792,0.803,1.194,1.196c0.106,0.104,0.112,0.161,0.003,0.269
		c-0.871,0.862-1.738,1.729-2.603,2.602c-0.1,0.1-0.15,0.1-0.25,0c-1.388-1.394-2.778-2.783-4.17-4.171
		c-0.077-0.077-0.131-0.129-0.022-0.236c0.888-0.889,1.77-1.785,2.655-2.678C16.719,0.853,16.748,0.827,16.784,0.792z"/>
</g>
</svg>
