<?xml version="1.0" encoding="utf-8"?>
<!-- Generator: Adobe Illustrator 16.0.0, SVG Export Plug-In . SVG Version: 6.00 Build 0)  -->
<!DOCTYPE svg PUBLIC "-//W3C//DTD SVG 1.1//EN" "http://www.w3.org/Graphics/SVG/1.1/DTD/svg11.dtd">
<svg version="1.1" id="Layer_1" xmlns="http://www.w3.org/2000/svg" xmlns:xlink="http://www.w3.org/1999/xlink" x="0px" y="0px"
	 width="21px" height="21px" viewBox="0 0 21 21" enable-background="new 0 0 21 21" xml:space="preserve">
<path display="none" fill="#666666" d="M10.5,0C16.299,0,21,4.701,21,10.5S16.299,21,10.5,21C4.702,21,0,16.299,0,10.5
	S4.702,0,10.5,0z"/>
<g>
	<path fill="#FFFFFF" d="M9.5,12.337c-0.054-0.382-0.04-0.732,0.039-1.049c0.079-0.318,0.195-0.61,0.351-0.876
		c0.153-0.265,0.328-0.512,0.524-0.739c0.197-0.228,0.381-0.451,0.557-0.668c0.175-0.219,0.321-0.433,0.437-0.646
		c0.118-0.211,0.176-0.44,0.176-0.684c0-0.382-0.116-0.689-0.343-0.922c-0.23-0.233-0.545-0.349-0.948-0.349
		c-0.328,0-0.625,0.073-0.891,0.222C9.139,6.775,8.891,6.975,8.657,7.23L7.639,6.293C7.979,5.89,8.382,5.559,8.848,5.299
		c0.465-0.259,0.991-0.39,1.575-0.39c0.423,0,0.815,0.055,1.177,0.167c0.359,0.112,0.673,0.279,0.939,0.501
		c0.263,0.222,0.467,0.498,0.61,0.827c0.144,0.328,0.216,0.71,0.216,1.145c0,0.339-0.063,0.644-0.184,0.914
		c-0.122,0.271-0.272,0.526-0.454,0.772c-0.179,0.244-0.372,0.477-0.579,0.699c-0.208,0.223-0.394,0.456-0.558,0.7
		c-0.166,0.244-0.296,0.504-0.397,0.778c-0.101,0.275-0.129,0.583-0.087,0.924L9.5,12.337L9.5,12.337z M9.135,14.706
		c0-0.36,0.112-0.657,0.335-0.891c0.222-0.232,0.503-0.35,0.842-0.35c0.339,0,0.624,0.118,0.851,0.35
		c0.229,0.233,0.343,0.53,0.343,0.891s-0.114,0.657-0.343,0.889c-0.228,0.235-0.512,0.351-0.851,0.351
		c-0.339,0-0.621-0.117-0.842-0.351C9.246,15.366,9.135,15.067,9.135,14.706z"/>
</g>
</svg>
