<?xml version="1.0" encoding="utf-8"?>
<!-- Generator: Adobe Illustrator 16.0.0, SVG Export Plug-In . SVG Version: 6.00 Build 0)  -->
<!DOCTYPE svg PUBLIC "-//W3C//DTD SVG 1.1//EN" "http://www.w3.org/Graphics/SVG/1.1/DTD/svg11.dtd">
<svg version="1.1" id="Layer_1" xmlns="http://www.w3.org/2000/svg" xmlns:xlink="http://www.w3.org/1999/xlink" x="0px" y="0px"
	 width="22px" height="22px" viewBox="0 0 22 22" enable-background="new 0 0 22 22" xml:space="preserve">
<g>
	<g>
		<path fill-rule="evenodd" clip-rule="evenodd" d="M0.329,21.9c-0.191,0-0.238-0.055-0.239-0.244
			c-0.008-1.563-0.026-3.125-0.046-4.689c-0.002-0.148,0.041-0.253,0.146-0.358C5.67,11.131,11.149,5.652,16.625,0.17
			c0.141-0.141,0.207-0.12,0.337,0.009c1.617,1.617,3.24,3.229,4.864,4.84c0.057,0.057,0.098,0.138,0.189,0.154
			c0,0.017,0,0.031,0,0.047c-0.073,0.017-0.108,0.082-0.152,0.128c-5.492,5.487-10.98,10.977-16.469,16.466
			c-0.046,0.047-0.112,0.018-0.128,0.091 M2.934,21.233c0.616,0,1.233-0.005,1.849,0.004c0.143,0.002,0.243-0.035,0.344-0.138
			c4.004-4.009,8.01-8.017,12.02-12.018c0.123-0.124,0.119-0.186-0.002-0.304c-1.303-1.293-2.6-2.59-3.893-3.895
			c-0.139-0.14-0.203-0.126-0.334,0.003c-2.166,2.176-4.337,4.345-6.507,6.515c-1.827,1.825-3.652,3.653-5.479,5.479
			c-0.083,0.08-0.158,0.153-0.155,0.292c0.023,1.268,0.041,2.538,0.051,3.808c0.002,0.165,0.053,0.21,0.212,0.208 M16.498,1.292
			c-0.034,0.033-0.063,0.057-0.087,0.082c-0.843,0.85-1.683,1.702-2.527,2.548c-0.103,0.102-0.052,0.151,0.021,0.225
			c1.324,1.32,2.647,2.643,3.968,3.968c0.095,0.095,0.144,0.095,0.238,0c0.822-0.83,1.647-1.655,2.477-2.476
			c0.104-0.103,0.098-0.157-0.003-0.255c-0.383-0.374-0.759-0.759-1.137-1.138c-0.935-0.941-1.869-1.882-2.807-2.822
			C16.598,1.378,16.547,1.338,16.498,1.292z"/>
	</g>
	<path fill-rule="evenodd" clip-rule="evenodd" fill="none" d="M0.889,21.352c-0.167,0.002-0.221-0.045-0.223-0.218
		c-0.011-1.335-0.03-2.67-0.054-4.002c-0.003-0.146,0.076-0.223,0.163-0.308c1.919-1.919,3.838-3.84,5.758-5.758
		c2.281-2.281,4.563-4.56,6.838-6.847c0.138-0.136,0.206-0.15,0.353-0.004c1.357,1.371,2.722,2.734,4.091,4.094
		c0.126,0.124,0.132,0.189,0.002,0.319c-4.214,4.205-8.425,8.417-12.633,12.631c-0.106,0.107-0.211,0.146-0.361,0.145
		C4.175,21.396,3.527,21.4,2.879,21.4"/>
	<path fill-rule="evenodd" clip-rule="evenodd" fill="none" d="M16.784,0.792c0.052,0.048,0.104,0.09,0.15,0.138
		c0.985,0.988,1.968,1.977,2.95,2.966c0.397,0.398,0.792,0.803,1.194,1.196c0.106,0.104,0.112,0.161,0.003,0.269
		c-0.871,0.862-1.738,1.729-2.603,2.602c-0.1,0.1-0.15,0.1-0.25,0c-1.388-1.394-2.778-2.783-4.17-4.171
		c-0.077-0.077-0.131-0.129-0.022-0.236c0.888-0.889,1.77-1.785,2.655-2.678C16.719,0.853,16.748,0.827,16.784,0.792z"/>
</g>
</svg>
