<?xml version="1.0" encoding="utf-8"?>
<!-- Generator: Adobe Illustrator 16.0.0, SVG Export Plug-In . SVG Version: 6.00 Build 0)  -->
<!DOCTYPE svg PUBLIC "-//W3C//DTD SVG 1.1//EN" "http://www.w3.org/Graphics/SVG/1.1/DTD/svg11.dtd">
<svg version="1.1" id="Layer_1" xmlns="http://www.w3.org/2000/svg" xmlns:xlink="http://www.w3.org/1999/xlink" x="0px" y="0px"
	 width="19px" height="19px" viewBox="0 0 19 19" enable-background="new 0 0 19 19" xml:space="preserve">
<g>
	<g>
		<path fill="#63BA1D" d="M12.256,7.188l-3.627,3.627L6.723,8.909c-0.252-0.252-0.661-0.252-0.913,0
			c-0.252,0.253-0.252,0.661,0,0.912l2.362,2.362c0.121,0.121,0.285,0.188,0.456,0.188c0.171,0,0.335-0.066,0.457-0.188L13.168,8.1
			c0.252-0.252,0.252-0.66,0-0.912S12.508,6.936,12.256,7.188z M9.51,0C4.263-0.006,0.005,4.242,0,9.489
			C-0.006,14.735,4.243,18.995,9.49,19c5.249,0,9.504-4.252,9.51-9.5C19,4.256,14.753,0.005,9.51,0z M9.51,17.709
			c-4.535,0.005-8.215-3.666-8.221-8.201S4.955,1.292,9.49,1.285v0.003c4.536,0,8.215,3.675,8.221,8.212
			C17.709,14.029,14.04,17.703,9.51,17.709z"/>
	</g>
</g>
</svg>
