<?xml version="1.0" encoding="utf-8"?>
<!-- Generator: Adobe Illustrator 16.0.0, SVG Export Plug-In . SVG Version: 6.00 Build 0)  -->
<!DOCTYPE svg PUBLIC "-//W3C//DTD SVG 1.1//EN" "http://www.w3.org/Graphics/SVG/1.1/DTD/svg11.dtd">
<svg version="1.1" id="Layer_1" xmlns="http://www.w3.org/2000/svg" xmlns:xlink="http://www.w3.org/1999/xlink" x="0px" y="0px"
	 width="22px" height="22px" viewBox="0 0 22 22" enable-background="new 0 0 22 22" xml:space="preserve">
<g>
	<path fill="#212121" d="M0.624,3.511c0-0.139,0-0.279,0-0.419c0.163-0.326,0.428-0.445,0.789-0.443
		c1.926,0.008,3.852,0,5.778,0.008c0.247,0.001,0.343-0.068,0.335-0.326C7.509,1.817,7.531,1.302,7.517,0.789
		C7.507,0.427,7.635,0.163,7.96,0c2.026,0,4.051,0,6.079,0c0.324,0.164,0.453,0.427,0.441,0.789
		c-0.015,0.505-0.004,1.011-0.002,1.516c0,0.341,0.006,0.347,0.356,0.347c1.916,0,3.834,0.005,5.751-0.003
		c0.361-0.002,0.625,0.118,0.788,0.443c0,0.14,0,0.28,0,0.419c-0.164,0.326-0.429,0.454-0.79,0.443
		C20.07,3.94,19.555,3.95,19.04,3.951c-0.313,0.001-0.336,0.024-0.34,0.348c-0.001,0.096-0.001,0.192-0.001,0.288
		c0,5.428,0,10.856,0,16.284c0,0.14-0.004,0.277-0.004,0.418c-0.004,0.34-0.146,0.587-0.465,0.721c-4.82,0-9.642,0-14.462,0
		c-0.324-0.131-0.461-0.381-0.465-0.72c-0.001-0.14-0.004-0.278-0.004-0.418c0-5.351,0-10.699,0-16.049c0-0.175,0.001-0.349,0-0.523
		C3.294,3.975,3.273,3.952,2.958,3.951C2.444,3.95,1.929,3.94,1.414,3.954C1.053,3.964,0.788,3.837,0.624,3.511z M4.614,12.313
		c0,2.672,0,5.344,0,8.015c0,0.403,0.001,0.403,0.411,0.403c3.991,0,7.98,0,11.971,0c0.382,0,0.387-0.006,0.387-0.375
		c0.001-5.342,0.001-10.686,0.001-16.028c-0.001-0.372-0.006-0.377-0.385-0.377c-3.998,0-7.998,0-11.997,0
		c-0.386,0-0.388,0.001-0.388,0.4C4.614,7.004,4.614,9.659,4.614,12.313z M11.007,1.278c-0.636,0-1.272,0.005-1.908-0.002
		c-0.198-0.002-0.292,0.061-0.282,0.27c0.011,0.234,0.008,0.47,0.001,0.705C8.813,2.433,8.895,2.497,9.07,2.497
		c1.29-0.003,2.581-0.004,3.87,0c0.185,0,0.246-0.083,0.242-0.256c-0.008-0.227-0.013-0.454,0-0.68
		c0.014-0.22-0.082-0.289-0.293-0.286C12.262,1.284,11.635,1.278,11.007,1.278z"/>
	<path fill="#212121" d="M7.271,12.354c0-1.642-0.001-3.283,0-4.924c0-0.454,0.244-0.733,0.634-0.742
		c0.36-0.007,0.618,0.217,0.658,0.575c0.01,0.095,0.006,0.192,0.006,0.288c0,3.204,0,6.409,0,9.613c0,0.553-0.233,0.868-0.645,0.872
		c-0.411,0.005-0.653-0.314-0.653-0.862C7.271,15.566,7.271,13.96,7.271,12.354z"/>
	<path fill="#212121" d="M14.229,12.34c0,1.605,0,3.215,0,4.82c0,0.104,0.004,0.21-0.011,0.313
		c-0.046,0.315-0.321,0.557-0.631,0.563c-0.317,0.006-0.604-0.246-0.647-0.571c-0.012-0.069-0.008-0.141-0.008-0.209
		c0-3.266,0-6.531,0-9.797c0-0.468,0.223-0.75,0.604-0.77c0.413-0.022,0.687,0.236,0.69,0.675c0.006,0.646,0.002,1.292,0.002,1.938
		C14.229,10.314,14.229,11.327,14.229,12.34z"/>
</g>
</svg>
