<?xml version="1.0" encoding="utf-8"?>
<!-- Generator: Adobe Illustrator 16.0.0, SVG Export Plug-In . SVG Version: 6.00 Build 0)  -->
<!DOCTYPE svg PUBLIC "-//W3C//DTD SVG 1.1//EN" "http://www.w3.org/Graphics/SVG/1.1/DTD/svg11.dtd">
<svg version="1.1" id="Layer_1" xmlns="http://www.w3.org/2000/svg" xmlns:xlink="http://www.w3.org/1999/xlink" x="0px" y="0px"
	 width="21px" height="21px" viewBox="0 0 21 21" enable-background="new 0 0 21 21" xml:space="preserve">
<path display="none" fill="#666666" d="M10.5,0C16.299,0,21,4.701,21,10.5S16.299,21,10.5,21S0,16.299,0,10.5S4.701,0,10.5,0z"/>
<g>
	<path fill="#3787E0" d="M10.5,6.808c-0.345,0-0.627-0.1-0.851-0.299C9.428,6.308,9.318,6.046,9.318,5.725
		c0-0.322,0.11-0.585,0.333-0.791c0.223-0.205,0.505-0.308,0.85-0.308s0.626,0.103,0.85,0.308c0.222,0.206,0.333,0.469,0.333,0.791
		c0,0.321-0.111,0.583-0.333,0.783C11.126,6.708,10.845,6.808,10.5,6.808z M9.534,8.241h1.914v8.179H9.534V8.241z"/>
</g>
</svg>
