<?xml version="1.0" encoding="utf-8"?>
<!-- Generator: Adobe Illustrator 18.1.1, SVG Export Plug-In . SVG Version: 6.00 Build 0)  -->
<svg version="1.1" id="Layer_1" xmlns="http://www.w3.org/2000/svg" xmlns:xlink="http://www.w3.org/1999/xlink" x="0px" y="0px"
	 width="21px" height="21px" viewBox="-469 270 21 21" enable-background="new -469 270 21 21" xml:space="preserve">
<path display="none" fill="#666666" d="M-458.5,270c5.8,0,10.5,4.7,10.5,10.5s-4.7,10.5-10.5,10.5s-10.5-4.7-10.5-10.5
	S-464.3,270-458.5,270z"/>
<g>
	<path fill="#FFFFFF" d="M-458.5,276.8c-0.3,0-0.6-0.1-0.9-0.3c-0.2-0.2-0.3-0.5-0.3-0.8c0-0.3,0.1-0.6,0.3-0.8
		c0.2-0.2,0.5-0.3,0.9-0.3s0.6,0.1,0.9,0.3c0.2,0.2,0.3,0.5,0.3,0.8c0,0.3-0.1,0.6-0.3,0.8C-457.9,276.7-458.2,276.8-458.5,276.8z
		 M-459.5,278.2h1.9v8.2h-1.9V278.2z"/>
</g>
</svg>
