<?xml version="1.0" encoding="utf-8"?>
<!-- Generator: Adobe Illustrator 18.1.1, SVG Export Plug-In . SVG Version: 6.00 Build 0)  -->
<svg version="1.1" id="Layer_1" xmlns="http://www.w3.org/2000/svg" xmlns:xlink="http://www.w3.org/1999/xlink" x="0px" y="0px"
	 width="24px" height="24px" viewBox="0 0 24 24" enable-background="new 0 0 24 24" xml:space="preserve">
<g>
	<g>
		<path fill="#969696" d="M7,22.6C7,22.6,7,22.6,7,22.6l-4.9,0c-0.3,0-0.6-0.3-0.6-0.6v-4.8c0-0.2,0.1-0.3,0.2-0.4L16.6,1.8
			c0.2-0.2,0.7-0.2,0.9,0l4.9,4.9c0.2,0.2,0.2,0.6,0,0.9L7.4,22.4C7.3,22.5,7.1,22.6,7,22.6z M2.8,21.3l4,0L21,7.1l-4-4L2.8,17.3
			V21.3z"/>
	</g>
	<g>
		<path fill="#969696" d="M18.9,10.6c-0.2,0-0.3-0.1-0.4-0.2l-4.9-4.9c-0.2-0.2-0.2-0.6,0-0.9c0.2-0.2,0.6-0.2,0.9,0l4.9,4.9
			c0.2,0.2,0.2,0.6,0,0.9C19.3,10.6,19.1,10.6,18.9,10.6z"/>
	</g>
	<g>
		<path fill="#969696" d="M7.6,22c-0.2,0-0.3-0.1-0.4-0.2l-4.9-4.9C2,16.7,2,16.3,2.3,16s0.6-0.2,0.9,0L8,20.9
			c0.2,0.2,0.2,0.6,0,0.9C7.9,21.9,7.8,22,7.6,22z"/>
	</g>
</g>
</svg>
