<svg version="1.1" id="Layer_1" xmlns="http://www.w3.org/2000/svg" x="0" y="0" width="24" height="24" xml:space="preserve"><path fill="#161616" d="M15.9 8.9c0 1.3-.5 2-1.3 2.7-.8.7-1.5 1.4-1.5 1.9 0 .4.1.7.3 1 0 .1 0 .2-.1.2h-2c-.1 0-.2 0-.3-.1-.4-.4-.5-1-.5-1.4 0-.9.5-1.5 1.5-2.4.6-.6 1-1 1-1.5 0-.6-.4-1-1.6-1-1.1 0-1.9.3-2.6.7.1 0 0-.1 0-.2V6.6c0-.1 0-.2.1-.2.5-.2 1.5-.7 3.2-.7 2.4 0 3.8 1.4 3.8 3.2zm-5.3 8.7c0-1 .7-1.6 1.6-1.6 1 0 1.6.6 1.6 1.6 0 .9-.6 1.6-1.6 1.6-.9 0-1.6-.6-1.6-1.6z"/></svg>