<svg width="28" height="28" fill="none" xmlns="http://www.w3.org/2000/svg"><path d="M28 14c0-7.732-6.268-14-14-14S0 6.268 0 14s6.268 14 14 14 14-6.268 14-14Z" fill="#D34242"/><path d="M21.25 8H17.5V7a1 1 0 0 0-1-1h-5a1 1 0 0 0-1 1v1H6.75a.25.25 0 0 0-.25.25v.5a.25.25 0 0 0 .25.25h1l1.207 12.55a.5.5 0 0 0 .5.45h9.089a.5.5 0 0 0 .5-.45L20.25 9h1a.25.25 0 0 0 .25-.25v-.5a.25.25 0 0 0-.25-.25ZM11.032 19.5a.5.5 0 0 1-.532-.465l-.536-8a.501.501 0 0 1 1-.067l.535 8a.5.5 0 0 1-.465.533l-.002-.001ZM14.5 19a.5.5 0 0 1-1 0v-8a.5.5 0 0 1 1 0v8Zm2-11h-5V7h5v1Zm1 11.034a.501.501 0 0 1-1-.067l.535-8a.501.501 0 0 1 1 .067l-.535 8Z" fill="#fff"/></svg>