<svg id="Decorative_icon" data-name="Decorative icon" xmlns="http://www.w3.org/2000/svg" width="18" height="18"><g id="Icon"><path id="Path_44" data-name="Path 44" d="M15.75 3H12V2a1 1 0 0 0-1-1H6a1 1 0 0 0-1 1v1H1.25a.25.25 0 0 0-.25.25v.5a.25.25 0 0 0 .25.25h1l1.207 12.55a.5.5 0 0 0 .5.45h9.089a.5.5 0 0 0 .5-.45L14.75 4h1a.25.25 0 0 0 .25-.25v-.5a.25.25 0 0 0-.25-.25ZM5.532 14.5A.5.5 0 0 1 5 14.035l-.536-8a.5.5 0 0 1 1-.067l.535 8a.5.5 0 0 1-.465.533ZM9 14a.5.5 0 0 1-1 0V6a.5.5 0 0 1 1 0Zm2-11H6V2h5Zm1 11.034a.5.5 0 0 1-1-.067l.535-8a.5.5 0 1 1 1 .067Z" transform="translate(.5)" fill="#fff"/></g></svg>