<svg width="18" height="18" fill="none" xmlns="http://www.w3.org/2000/svg"><g id="Decorative_icon" clip-path="url('#clip0_1076_5307')"><g id="Icon"><g id="Group 15" fill="#BE5509"><path id="Path 50" d="M17 3h-2.5V1.5A.5.5 0 0 0 14 1h-1a.5.5 0 0 0-.5.5V3h-7V1.5A.5.5 0 0 0 5 1H4a.5.5 0 0 0-.5.5V3H1a.5.5 0 0 0-.5.5v13a.5.5 0 0 0 .5.5h16a.5.5 0 0 0 .5-.5v-13A.5.5 0 0 0 17 3Zm-.5 13h-15V4h2v.5A.5.5 0 0 0 4 5h1a.5.5 0 0 0 .5-.5V4h7v.5a.5.5 0 0 0 .5.5h1a.5.5 0 0 0 .5-.5V4h2v12Z"/><path id="Rectangle 35" d="M5.5 6h-2v2h2V6Z"/><path id="Rectangle 36" d="M8.5 6h-2v2h2V6Z"/><path id="Rectangle 37" d="M11.5 6h-2v2h2V6Z"/><path id="Rectangle 38" d="M14.5 6h-2v2h2V6Z"/><path id="Rectangle 39" d="M5.5 9h-2v2h2V9Z"/><path id="Rectangle 40" d="M8.5 9h-2v2h2V9Z"/><path id="Rectangle 41" d="M11.5 9h-2v2h2V9Z"/><path id="Rectangle 42" d="M14.5 9h-2v2h2V9Z"/><path id="Rectangle 43" d="M5.5 12h-2v2h2v-2Z"/><path id="Rectangle 44" d="M8.5 12h-2v2h2v-2Z"/><path id="Rectangle 45" d="M11.5 12h-2v2h2v-2Z"/><path id="Rectangle 46" d="M14.5 12h-2v2h2v-2Z"/></g></g></g><defs><clipPath id="clip0_1076_5307"><path fill="#fff" d="M0 0h18v18H0z"/></clipPath></defs></svg>