<svg width="18" height="18" fill="none" xmlns="http://www.w3.org/2000/svg"><g clip-path="url('#clip0_1076_5375')"><path d="M8.564 1.29.2 16.255A.5.5 0 0 0 .636 17h16.728a.5.5 0 0 0 .436-.744L9.436 1.29a.5.5 0 0 0-.873 0h.001ZM10 14.75a.25.25 0 0 1-.25.25h-1.5a.25.25 0 0 1-.25-.25v-1.5a.25.25 0 0 1 .25-.25h1.5a.25.25 0 0 1 .25.25v1.5Zm0-3a.25.25 0 0 1-.25.25h-1.5a.25.25 0 0 1-.25-.25v-6a.25.25 0 0 1 .25-.25h1.5a.25.25 0 0 1 .25.25v6Z" fill="#EC3333"/></g><defs><clipPath id="clip0_1076_5375"><path fill="#fff" d="M0 0h18v18H0z"/></clipPath></defs></svg>