<svg width="18" height="18" fill="none" xmlns="http://www.w3.org/2000/svg"><g id="Frame" clip-path="url('#clip0_887_1430')"><g id="Icon"><path id="Path 49" d="M8.1 15.778a3.32 3.32 0 0 1-2.364.985h-.049a3.488 3.488 0 0 1-2.414-1.037 3.382 3.382 0 0 1-.1-4.782l.048-.049L12.112 2c.415-.43.972-.694 1.567-.74a1.86 1.86 0 0 1 1.521.56 1.768 1.768 0 0 1 .56 1.534 2.87 2.87 0 0 1-.793 1.5l-5.93 5.92c-.382.382-.74.658-1.15.25-.409-.408-.088-.785.263-1.135l4.837-4.83a.366.366 0 0 0 .007-.511l-.337-.359a.366.366 0 0 0-.519-.016l-.009.008L7.15 9.172a1.816 1.816 0 0 0-.036 2.734c1.331 1.33 2.842-.3 2.842-.3l5.894-5.873a3.299 3.299 0 0 0 .236-4.8A3.114 3.114 0 0 0 13.796 0a3.637 3.637 0 0 0-2.567 1.114L2.38 9.95a4.717 4.717 0 0 0 6.67 6.67l7.7-7.7a.367.367 0 0 0 0-.519l-.375-.375a.367.367 0 0 0-.519 0L8.1 15.778Z" fill="#fff"/></g></g><defs><clipPath id="clip0_887_1430"><path fill="#fff" transform="translate(0 -.001)" d="M0 0h18v18.002H0z"/></clipPath></defs></svg>