<svg width="18" height="18" fill="none" xmlns="http://www.w3.org/2000/svg"><g id="Decorative_icon" clip-path="url('#clip0_1076_5456')"><circle id="Ellipse 3" cx="9" cy="9" r="8" fill="#fff"/><g id="Icon"><path id="Path 53" d="M9 1a8 8 0 1 0 0 16A8 8 0 0 0 9 1Zm.024 13.438a1.345 1.345 0 0 1-.116-2.688h.116a1.31 1.31 0 0 1 1.4 1.217v.118a1.29 1.29 0 0 1-1.4 1.353Zm1.783-6.409-.1.1c-.394.415-.842.884-.842 1.175.002.236.064.468.18.674l.072.139-.057.215a.31.31 0 0 1-.283.189H8.436a.432.432 0 0 1-.325-.117 2.056 2.056 0 0 1-.423-1.262A3.06 3.06 0 0 1 8.8 7.07c.1-.109.195-.21.288-.3.314-.326.507-.536.507-.758 0-.154 0-.622-.893-.622-.56 0-1.107.16-1.58.459a.3.3 0 0 1-.326-.01l-.119-.085-.028-.224V4.08a.44.44 0 0 1 .2-.41A4.138 4.138 0 0 1 9 3.12a2.55 2.55 0 0 1 2.75 2.636 3.065 3.065 0 0 1-.939 2.273h-.004Z" fill="#BE5509"/></g></g><defs><clipPath id="clip0_1076_5456"><path fill="#fff" d="M0 0h18v18H0z"/></clipPath></defs></svg>