<?xml version="1.0" encoding="utf-8"?>
<!-- Generator: Adobe Illustrator 16.0.0, SVG Export Plug-In . SVG Version: 6.00 Build 0)  -->
<!DOCTYPE svg PUBLIC "-//W3C//DTD SVG 1.1//EN" "http://www.w3.org/Graphics/SVG/1.1/DTD/svg11.dtd">
<svg version="1.1" id="Layer_1" xmlns="http://www.w3.org/2000/svg" xmlns:xlink="http://www.w3.org/1999/xlink" x="0px" y="0px"
	 width="16px" height="16px" viewBox="0 0 16 16" enable-background="new 0 0 16 16" xml:space="preserve">
<g>
	<path fill-rule="evenodd" clip-rule="evenodd" fill="#FDFEFF" d="M0,0h16v16H0V0z"/>
</g>
<path fill="#0071BC" d="M7.526,11.635c-0.454,0.486-1.19,0.486-1.644,0l-2.545-2.73c-0.454-0.486-0.454-1.276,0-1.762
	s1.189-0.486,1.643,0l1.517,1.626c0.114,0.123,0.3,0.123,0.415,0l4.107-4.405c0.453-0.486,1.189-0.486,1.643,0
	c0.219,0.233,0.34,0.55,0.34,0.881c0,0.33-0.121,0.648-0.34,0.881L7.526,11.635z"/>
</svg>
