<?xml version="1.0" encoding="utf-8"?>
<!-- Generator: Adobe Illustrator 16.0.0, SVG Export Plug-In . SVG Version: 6.00 Build 0)  -->
<!DOCTYPE svg PUBLIC "-//W3C//DTD SVG 1.1//EN" "http://www.w3.org/Graphics/SVG/1.1/DTD/svg11.dtd">
<svg version="1.1" id="Layer_1" xmlns="http://www.w3.org/2000/svg" xmlns:xlink="http://www.w3.org/1999/xlink" x="0px" y="0px"
	 width="26px" height="26px" viewBox="0 0 26 26" enable-background="new 0 0 26 26" xml:space="preserve">
<g>
	<path fill="#0071BC" d="M11.039,15.893c-0.08-0.576-0.06-1.104,0.06-1.584c0.12-0.48,0.296-0.92,0.528-1.32
		s0.496-0.772,0.792-1.116c0.296-0.344,0.576-0.68,0.84-1.008c0.264-0.328,0.484-0.652,0.66-0.972
		c0.175-0.32,0.264-0.664,0.264-1.032c0-0.576-0.173-1.04-0.516-1.392c-0.344-0.352-0.82-0.528-1.428-0.528
		c-0.496,0-0.944,0.112-1.344,0.336c-0.4,0.224-0.776,0.528-1.128,0.912L8.23,6.772c0.512-0.608,1.12-1.108,1.824-1.5
		c0.704-0.392,1.496-0.588,2.376-0.588c0.64,0,1.232,0.084,1.776,0.252c0.543,0.168,1.016,0.42,1.415,0.756
		c0.4,0.336,0.708,0.752,0.925,1.248c0.216,0.496,0.323,1.072,0.323,1.728c0,0.512-0.092,0.972-0.275,1.38
		c-0.185,0.408-0.412,0.796-0.684,1.164c-0.273,0.368-0.564,0.72-0.876,1.056c-0.313,0.336-0.593,0.688-0.841,1.056
		c-0.248,0.368-0.448,0.76-0.6,1.176c-0.152,0.416-0.196,0.881-0.132,1.393H11.039z M10.486,19.469c0-0.545,0.168-0.992,0.504-1.344
		c0.336-0.353,0.76-0.529,1.272-0.529c0.512,0,0.939,0.177,1.284,0.529c0.344,0.352,0.516,0.799,0.516,1.344
		c0,0.543-0.172,0.992-0.516,1.344s-0.772,0.527-1.284,0.527c-0.512,0-0.936-0.176-1.272-0.527
		C10.654,20.461,10.486,20.012,10.486,19.469z"/>
</g>
</svg>
