<?xml version="1.0" encoding="utf-8"?>
<!-- Generator: Adobe Illustrator 16.0.0, SVG Export Plug-In . SVG Version: 6.00 Build 0)  -->
<!DOCTYPE svg PUBLIC "-//W3C//DTD SVG 1.1//EN" "http://www.w3.org/Graphics/SVG/1.1/DTD/svg11.dtd">
<svg version="1.1" id="Layer_1" xmlns="http://www.w3.org/2000/svg" xmlns:xlink="http://www.w3.org/1999/xlink" x="0px" y="0px"
	 width="16px" height="16px" viewBox="0 0 16 16" enable-background="new 0 0 16 16" xml:space="preserve">
<g>
	<path fill-rule="evenodd" clip-rule="evenodd" fill="#EEEEEE" d="M8,15.51c-4.139,0-7.505-3.367-7.505-7.506
		C0.494,3.866,3.861,0.5,8,0.5c4.139,0,7.506,3.366,7.506,7.504C15.506,12.143,12.139,15.51,8,15.51z"/>
	<path fill="#AEB0B5" d="M8,1c3.864,0,7.006,3.142,7.006,7.004c0,3.863-3.143,7.006-7.006,7.006c-3.863,0-7.005-3.143-7.005-7.006
		C0.994,4.142,4.137,1,8,1 M8,0C3.579,0-0.006,3.584-0.006,8.004c0,4.422,3.584,8.006,8.005,8.006c4.42,0,8.006-3.584,8.006-8.006
		C16.006,3.584,12.42,0,8,0L8,0z"/>
</g>
</svg>
