<?xml version="1.0" encoding="utf-8"?>
<!-- Generator: Adobe Illustrator 18.1.1, SVG Export Plug-In . SVG Version: 6.00 Build 0)  -->
<svg version="1.1" id="Layer_1" xmlns="http://www.w3.org/2000/svg" xmlns:xlink="http://www.w3.org/1999/xlink" x="0px" y="0px"
	 width="24px" height="24px" viewBox="0 0 24 24" enable-background="new 0 0 24 24" xml:space="preserve">
<g>
	<path fill="#969696" d="M12,2.3c5.3,0,9.7,4.4,9.7,9.7s-4.4,9.7-9.7,9.7S2.3,17.3,2.3,12S6.7,2.3,12,2.3 M12,1C5.9,1,1,5.9,1,12
		s4.9,11,11,11c6.1,0,11-4.9,11-11S18.1,1,12,1L12,1z"/>
	<path fill="#969696" d="M17.5,11.2h-4.8V6.5c0-0.4-0.3-0.8-0.8-0.8s-0.8,0.3-0.8,0.8v4.8H6.5c-0.4,0-0.8,0.3-0.8,0.8
		s0.3,0.8,0.8,0.8h4.8v4.8c0,0.4,0.3,0.8,0.8,0.8s0.8-0.3,0.8-0.8v-4.8h4.8c0.4,0,0.8-0.3,0.8-0.8S17.9,11.2,17.5,11.2z"/>
</g>
</svg>
