<?xml version="1.0" encoding="utf-8"?>
<!-- Generator: Adobe Illustrator 18.1.1, SVG Export Plug-In . SVG Version: 6.00 Build 0)  -->
<svg version="1.1" id="Layer_1" xmlns="http://www.w3.org/2000/svg" xmlns:xlink="http://www.w3.org/1999/xlink" x="0px" y="0px"
	 width="24px" height="24px" viewBox="-5 7 24 24" enable-background="new -5 7 24 24" xml:space="preserve">
<path fill="#666666" d="M17.1,15.3h-6.4V8.9c0-0.5-0.4-0.9-0.9-0.9H4.2C3.7,8,3.3,8.4,3.3,8.9v6.4h-6.4c-0.5,0-0.9,0.4-0.9,0.9v5.5
	c0,0.5,0.4,0.9,0.9,0.9h6.4v6.4c0,0.5,0.4,0.9,0.9,0.9h5.5c0.5,0,0.9-0.4,0.9-0.9v-6.4h6.4c0.5,0,0.9-0.4,0.9-0.9v-5.5
	C18,15.7,17.6,15.3,17.1,15.3z"/>
</svg>
