<?xml version="1.0" encoding="utf-8"?>
<!-- Generator: Adobe Illustrator 18.1.1, SVG Export Plug-In . SVG Version: 6.00 Build 0)  -->
<svg version="1.1" id="Layer_1" xmlns="http://www.w3.org/2000/svg" xmlns:xlink="http://www.w3.org/1999/xlink" x="0px" y="0px"
	 width="24px" height="31px" viewBox="0 0 24 31" enable-background="new 0 0 24 31" xml:space="preserve">
<path id="XMLID_3_" fill="#555555" d="M23,14.2c0,0.4-0.3,0.8-0.8,0.8H1.8C1.3,15,1,14.7,1,14.2v-2.5C1,11.3,1.3,11,1.8,11h20.5
	c0.4,0,0.8,0.3,0.8,0.8V14.2z M23,19.8c0-0.4-0.3-0.8-0.8-0.8H1.8C1.3,19,1,19.3,1,19.8v2.5C1,22.7,1.3,23,1.8,23h20.5
	c0.4,0,0.8-0.3,0.8-0.8V19.8z M23,27.8c0-0.4-0.3-0.8-0.8-0.8H1.8C1.3,27,1,27.3,1,27.8v2.5C1,30.7,1.3,31,1.8,31h20.5
	c0.4,0,0.8-0.3,0.8-0.8V27.8z"/>
</svg>
