<?xml version="1.0" encoding="utf-8"?>
<!-- Generator: Adobe Illustrator 18.1.1, SVG Export Plug-In . SVG Version: 6.00 Build 0)  -->
<svg version="1.1" id="Layer_1" xmlns="http://www.w3.org/2000/svg" xmlns:xlink="http://www.w3.org/1999/xlink" x="0px" y="0px"
	 width="24px" height="24px" viewBox="0 0 24 24" enable-background="new 0 0 24 24" xml:space="preserve">
<path fill="#808080" d="M22.1,8.3h-6.4V1.9c0-0.5-0.4-0.9-0.9-0.9H9.2C8.7,1,8.3,1.4,8.3,1.9v6.4H1.9C1.4,8.3,1,8.7,1,9.2v5.5
	c0,0.5,0.4,0.9,0.9,0.9h6.4v6.4c0,0.5,0.4,0.9,0.9,0.9h5.5c0.5,0,0.9-0.4,0.9-0.9v-6.4h6.4c0.5,0,0.9-0.4,0.9-0.9V9.2
	C23,8.7,22.6,8.3,22.1,8.3z"/>
</svg>
