<?xml version="1.0" encoding="utf-8"?>
<!-- Generator: Adobe Illustrator 18.1.1, SVG Export Plug-In . SVG Version: 6.00 Build 0)  -->
<svg version="1.1" id="Layer_1" xmlns="http://www.w3.org/2000/svg" xmlns:xlink="http://www.w3.org/1999/xlink" x="0px" y="0px"
	 width="24px" height="24px" viewBox="0 0 24 24" enable-background="new 0 0 24 24" xml:space="preserve">
<path id="XMLID_854_" opacity="0.8" fill="#FFFFFF" d="M23.5,4L0.3,9C0,9.1-0.1,9.5,0.2,9.7l4.5,3.1c0.2,0.1,0.5,0.2,0.7,0.1
	l9.9-4.1c0.3-0.1,0.5,0.2,0.2,0.4l-7.2,5.6C8.1,14.9,8,15.1,8,15.4V19c0,0.4,0.4,0.5,0.7,0.3l2.1-2.1l2.2,1.6
	c0.3,0.2,0.6,0.2,0.9-0.1L23.9,4.6C24.1,4.3,23.9,3.9,23.5,4z"/>
</svg>
