<svg id="Decorative_icon" data-name="Decorative icon" xmlns="http://www.w3.org/2000/svg" width="16" height="16"><g id="Icon"><path id="Path_6" data-name="Path 6" d="M8 1a7 7 0 1 0 7 7 7 7 0 0 0-7-7Zm.021 11.758a1.177 1.177 0 0 1-.1-2.352h.1a1.146 1.146 0 0 1 1.223 1.065v.1a1.129 1.129 0 0 1-1.225 1.183Zm1.56-5.608-.087.092c-.345.363-.737.773-.737 1.029a1.212 1.212 0 0 0 .157.59l.063.121-.049.188a.27.27 0 0 1-.248.165H7.506a.379.379 0 0 1-.284-.1 1.8 1.8 0 0 1-.37-1.1 2.677 2.677 0 0 1 .973-1.816c.088-.1.171-.184.252-.266.275-.285.443-.469.443-.663 0-.135 0-.545-.781-.545a2.589 2.589 0 0 0-1.382.4.259.259 0 0 1-.286-.009l-.1-.074-.024-.194V3.695a.385.385 0 0 1 .172-.358A3.62 3.62 0 0 1 8 2.855a2.232 2.232 0 0 1 2.4 2.307 2.682 2.682 0 0 1-.819 1.988Z" fill="#161616"/></g></svg>