<?xml version="1.0" encoding="utf-8"?>
<!-- Generator: Adobe Illustrator 18.1.1, SVG Export Plug-In . SVG Version: 6.00 Build 0)  -->
<svg version="1.1" id="Layer_1" xmlns="http://www.w3.org/2000/svg" xmlns:xlink="http://www.w3.org/1999/xlink" x="0px" y="0px"
	 width="416px" height="279.6px" viewBox="-431 231.4 416 279.6" enable-background="new -431 231.4 416 279.6"
	 xml:space="preserve">
<rect x="-5373.2" y="-603.7" display="none" width="5860.8" height="2575.2"/>
<path d="M-3194.8,335.7l-195.4-195.5c-16-16-41.9-16-57.9,0l-876,876L-4693.3,647c-16-16-41.9-16-57.9,0l-195.4,195.5
	c-16,16-16,41.8,0,57.9l398.2,398.2L-4353,1494c16,16.1,41.9,16.1,57.9,0l195.5-195.4l904.9-905
	C-3178.8,377.6-3178.8,351.7-3194.8,335.7z"/>
<g>
	<path fill="#CCCCCC" d="M-17,316l-32.6-32.6c-2.7-2.7-7-2.7-9.7,0l-146,146l-27.8-27.8l-24.9,24.8l-17.4,17.4l32.6,32.6l32.6,32.6
		c2.6,2.7,7,2.7,9.6,0l32.5-32.6L-17,325.7C-14.4,323-14.4,318.7-17,316z"/>
	<path fill="#CCCCCC" d="M-137,266l-32.6-32.6c-2.6-2.7-7-2.7-9.6,0l-146,146l-61.6-61.6c-2.6-2.6-7-2.6-9.6,0l-32.6,32.6
		c-2.6,2.6-2.6,6.9,0,9.6l66.4,66.3l32.6,32.6c2.6,2.7,7,2.7,9.6,0l32.6-32.6L-137,275.7C-134.4,273-134.4,268.7-137,266z"/>
</g>
<path fill="#F5F5F5" d="M762.8,611.7l-32.6-32.6c-2.6-2.7-7-2.7-9.6,0l-146,146L513,663.5c-2.7-2.6-7-2.6-9.7,0l-32.5,32.6
	c-2.7,2.7-2.7,7,0,9.6l66.3,66.3l32.6,32.6c2.6,2.7,7,2.7,9.6,0l32.6-32.6l150.9-150.8C765.5,618.6,765.5,614.3,762.8,611.7z"/>
<path fill="#5D5D5D" d="M692.8,561.7l-32.6-32.6c-2.6-2.7-7-2.7-9.6,0l-146,146L443,613.5c-2.7-2.6-7-2.6-9.7,0l-32.5,32.6
	c-2.7,2.7-2.7,7,0,9.6l66.3,66.4l32.6,32.6c2.6,2.7,7,2.7,9.6,0l32.5-32.6l150.9-150.8C695.5,568.6,695.5,564.3,692.8,561.7z"/>
<path fill="#F5F5F5" d="M642.8,561.7l-32.6-32.6c-2.6-2.7-7-2.7-9.6,0l-146,146L393,613.5c-2.7-2.6-7-2.6-9.7,0l-32.5,32.6
	c-2.7,2.7-2.7,7,0,9.6l66.3,66.4l32.6,32.6c2.6,2.7,7,2.7,9.6,0l32.5-32.6l150.9-150.8C645.5,568.6,645.5,564.3,642.8,561.7z"/>
</svg>
