<svg width="17" height="14" fill="none" xmlns="http://www.w3.org/2000/svg"><g id="Group"><path id="Vector" d="M16.402 11.9 9.902.7A1.427 1.427 0 0 0 8.685 0c-.5 0-.95.267-1.216.7l-6.5 11.2A1.4 1.4 0 0 0 2.185 14H15.22c.5 0 .966-.267 1.216-.7.25-.433.234-.967-.033-1.4ZM8.685 3.533c.567 0 1.034.484 1 1.05l-.2 3.867a.794.794 0 0 1-.8.767.793.793 0 0 1-.8-.767l-.2-3.867a.995.995 0 0 1 1-1.05Zm0 8.517c-.583 0-1.05-.467-1.05-1.05s.467-1.05 1.05-1.05c.584 0 1.05.467 1.05 1.05s-.466 1.05-1.05 1.05Z" fill="#AE0D0D"/></g></svg>