<svg id="Decorative_icon" data-name="Decorative icon" xmlns="http://www.w3.org/2000/svg" width="16" height="16"><g id="Icon"><path id="Path_23" data-name="Path 23" d="M7.216 13.206a2.973 2.973 0 0 1-2.069.824H5.1a3.121 3.121 0 0 1-2.112-.868 2.744 2.744 0 0 1-.085-4l.042-.041 7.779-7.451a2.174 2.174 0 0 1 1.371-.619 1.67 1.67 0 0 1 1.331.469 1.445 1.445 0 0 1 .488 1.28 2.37 2.37 0 0 1-.693 1.255L8.032 9.014c-.334.32-.649.55-1.006.209s-.077-.657.23-.95l4.232-4.042a.3.3 0 0 0 .006-.427l-.3-.3a.332.332 0 0 0-.455-.013l-.007.007-4.351 4.178a1.477 1.477 0 0 0-.031 2.289c1.164 1.113 2.486-.247 2.486-.247L13.995 4.8A2.685 2.685 0 0 0 14.2.781a2.79 2.79 0 0 0-2-.781 3.253 3.253 0 0 0-2.25.932l-7.743 7.4a3.827 3.827 0 0 0 0 5.583 4.261 4.261 0 0 0 5.837 0l6.74-6.445a.3.3 0 0 0 0-.434l-.328-.314a.332.332 0 0 0-.455 0Z" transform="translate(0 .466)" fill="#161616"/></g></svg>