<svg width="18" height="18" fill="none" xmlns="http://www.w3.org/2000/svg"><g id="info"><path id="Vector" fill-rule="evenodd" clip-rule="evenodd" d="M9 0a9 9 0 1 1 0 18A9 9 0 0 1 9 0Zm-.07 3.293c1.865 0 3.572 1.404 3.572 3.336 0 1.32-.818 2.453-2 2.994a1.368 1.368 0 0 0-.819 1.28v.797H8.176v-.797a2.87 2.87 0 0 1 1.7-2.646c.644-.295 1.12-.903 1.12-1.628 0-1.105-1.03-1.828-2.066-1.828-.976 0-1.674.503-2.02 1.402l-1.413-.5c.515-1.493 1.86-2.41 3.433-2.41Zm0 9.247a1.083 1.083 0 1 1-.001 2.167 1.083 1.083 0 0 1 0-2.167Z" fill="#4E89FA"/></g></svg>