<?xml version="1.0" encoding="utf-8"?>
<!-- Generator: Adobe Illustrator 16.0.0, SVG Export Plug-In . SVG Version: 6.00 Build 0)  -->
<!DOCTYPE svg PUBLIC "-//W3C//DTD SVG 1.1//EN" "http://www.w3.org/Graphics/SVG/1.1/DTD/svg11.dtd">
<svg version="1.1" id="Layer_1" xmlns="http://www.w3.org/2000/svg" xmlns:xlink="http://www.w3.org/1999/xlink" x="0px" y="0px"
	 width="22px" height="22px" viewBox="0 0 22 22" enable-background="new 0 0 22 22" xml:space="preserve">
<g>
	<path fill-rule="evenodd" clip-rule="evenodd" fill="#0071BC" d="M3,0h16c1.657,0,3,1.343,3,3v16c0,1.656-1.343,3-3,3H3
		c-1.657,0-3-1.344-3-3V3C0,1.343,1.343,0,3,0z"/>
</g>
<path fill="#FFFFFF" d="M10.337,15.998c-0.635,0.67-1.666,0.67-2.3,0l-3.564-3.754c-0.635-0.669-0.635-1.754,0-2.424
	c0.635-0.668,1.666-0.668,2.3,0l2.124,2.237c0.161,0.169,0.421,0.169,0.581,0L15.228,6c0.635-0.668,1.665-0.668,2.3,0
	c0.306,0.322,0.477,0.758,0.477,1.212s-0.171,0.891-0.477,1.212L10.337,15.998z"/>
</svg>
