<?xml version="1.0" encoding="utf-8"?>
<!-- Generator: Adobe Illustrator 16.0.0, SVG Export Plug-In . SVG Version: 6.00 Build 0)  -->
<!DOCTYPE svg PUBLIC "-//W3C//DTD SVG 1.1//EN" "http://www.w3.org/Graphics/SVG/1.1/DTD/svg11.dtd">
<svg version="1.1" id="Layer_1" xmlns="http://www.w3.org/2000/svg" xmlns:xlink="http://www.w3.org/1999/xlink" x="0px" y="0px"
	 width="22px" height="22px" viewBox="0 0 22 22" enable-background="new 0 0 22 22" xml:space="preserve">
<g>
	<path fill="#FFFFFF" d="M3,21.5c-1.378,0-2.5-1.121-2.5-2.5V3c0-1.379,1.122-2.5,2.5-2.5h16c1.379,0,2.5,1.122,2.5,2.5v16
		c0,1.379-1.121,2.5-2.5,2.5H3z"/>
	<path fill="#757575" d="M19,1c1.104,0,2,0.897,2,2v16c0,1.104-0.896,2-2,2H3c-1.103,0-2-0.896-2-2V3c0-1.103,0.897-2,2-2H19 M19,0
		H3C1.343,0,0,1.343,0,3v16c0,1.656,1.343,3,3,3h16c1.657,0,3-1.344,3-3V3C22,1.343,20.657,0,19,0L19,0z"/>
</g>
</svg>
