<?xml version="1.0" encoding="utf-8"?>
<!-- Generator: Adobe Illustrator 16.0.0, SVG Export Plug-In . SVG Version: 6.00 Build 0)  -->
<!DOCTYPE svg PUBLIC "-//W3C//DTD SVG 1.1//EN" "http://www.w3.org/Graphics/SVG/1.1/DTD/svg11.dtd">
<svg version="1.1" id="Layer_1" xmlns="http://www.w3.org/2000/svg" xmlns:xlink="http://www.w3.org/1999/xlink" x="0px" y="0px"
	 width="22px" height="22px" viewBox="0 0 22 22" enable-background="new 0 0 22 22" xml:space="preserve">
<g>
	<g>
		<path fill="#D6D7D9" d="M2.984,21.516c-1.378,0-2.5-1.121-2.5-2.5v-16c0-1.378,1.122-2.5,2.5-2.5h16c1.379,0,2.5,1.122,2.5,2.5v16
			c0,1.379-1.121,2.5-2.5,2.5H2.984z"/>
		<path fill="#AEB0B5" d="M18.984,1.016c1.103,0,2,0.897,2,2v16c0,1.103-0.897,2-2,2h-16c-1.103,0-2-0.897-2-2v-16
			c0-1.103,0.897-2,2-2H18.984 M18.984,0.016h-16c-1.657,0-3,1.343-3,3v16c0,1.656,1.343,3,3,3h16c1.657,0,3-1.344,3-3v-16
			C21.984,1.358,20.642,0.016,18.984,0.016L18.984,0.016z"/>
	</g>
</g>
</svg>
