<?xml version="1.0" encoding="utf-8"?>
<!-- Generator: Adobe Illustrator 16.0.0, SVG Export Plug-In . SVG Version: 6.00 Build 0)  -->
<!DOCTYPE svg PUBLIC "-//W3C//DTD SVG 1.1//EN" "http://www.w3.org/Graphics/SVG/1.1/DTD/svg11.dtd">
<svg version="1.1" id="Layer_1" xmlns="http://www.w3.org/2000/svg" xmlns:xlink="http://www.w3.org/1999/xlink" x="0px" y="0px"
	 width="30px" height="30px" viewBox="0 0 30 30" enable-background="new 0 0 30 30" xml:space="preserve">
<g>
	<g>
		<path fill="#FFFFFF" d="M13.875,11.101h2.251c0.109,0,0.199-0.035,0.27-0.104c0.069-0.069,0.105-0.158,0.105-0.267V8.872
			c0-0.108-0.036-0.197-0.105-0.268c-0.07-0.069-0.16-0.104-0.27-0.104h-2.251c-0.11,0-0.2,0.034-0.271,0.104
			c-0.07,0.07-0.105,0.159-0.105,0.268v1.857c0,0.108,0.035,0.197,0.105,0.267S13.765,11.101,13.875,11.101z M17.896,19.005
			c-0.07-0.069-0.16-0.104-0.27-0.104h-1.126v-5.942c0-0.108-0.036-0.197-0.105-0.268c-0.07-0.069-0.16-0.104-0.27-0.104h-3.753
			c-0.109,0-0.199,0.034-0.27,0.104c-0.07,0.07-0.105,0.159-0.105,0.268v1.856c0,0.109,0.035,0.198,0.105,0.268
			s0.16,0.104,0.27,0.104h1.126V18.9h-1.126c-0.109,0-0.199,0.034-0.27,0.104s-0.105,0.158-0.105,0.268v1.856
			c0,0.108,0.035,0.197,0.105,0.267c0.07,0.07,0.16,0.104,0.27,0.104h5.254c0.109,0,0.199-0.034,0.27-0.104
			c0.07-0.069,0.105-0.158,0.105-0.267v-1.856C18.002,19.164,17.967,19.075,17.896,19.005z"/>
	</g>
</g>
</svg>
