<?xml version="1.0" encoding="utf-8"?>
<!-- Generator: Adobe Illustrator 16.0.0, SVG Export Plug-In . SVG Version: 6.00 Build 0)  -->
<!DOCTYPE svg PUBLIC "-//W3C//DTD SVG 1.1//EN" "http://www.w3.org/Graphics/SVG/1.1/DTD/svg11.dtd">
<svg version="1.1" id="Layer_1" xmlns="http://www.w3.org/2000/svg" xmlns:xlink="http://www.w3.org/1999/xlink" x="0px" y="0px"
	 width="22px" height="22px" viewBox="0 0 22 22" enable-background="new 0 0 22 22" xml:space="preserve">
<g>
	<path fill-rule="evenodd" clip-rule="evenodd" fill="#FFFFFF" d="M11.09,21c-5.513,0-9.998-4.486-9.998-10S5.578,1,11.09,1
		c5.512,0,9.998,4.486,9.998,10S16.603,21,11.09,21z"/>
	<path fill="#0071BC" d="M11.09,2c4.961,0,8.998,4.038,8.998,9s-4.036,9-8.998,9s-8.998-4.038-8.998-9S6.129,2,11.09,2 M11.09,0
		C5.017,0,0.092,4.924,0.092,11c0,6.075,4.924,11,10.998,11s10.998-4.926,10.998-11C22.088,4.924,17.164,0,11.09,0L11.09,0z"/>
</g>
<path fill-rule="evenodd" clip-rule="evenodd" fill="#0071BC" d="M11.091,3.999c3.854,0,6.978,3.134,6.978,7S14.945,18,11.091,18
	c-3.854,0-6.979-3.135-6.979-7.001S7.237,3.999,11.091,3.999z"/>
</svg>
