<?xml version="1.0" encoding="utf-8"?>
<!-- Generator: Adobe Illustrator 16.0.0, SVG Export Plug-In . SVG Version: 6.00 Build 0)  -->
<!DOCTYPE svg PUBLIC "-//W3C//DTD SVG 1.1//EN" "http://www.w3.org/Graphics/SVG/1.1/DTD/svg11.dtd">
<svg version="1.1" id="Layer_1" xmlns="http://www.w3.org/2000/svg" xmlns:xlink="http://www.w3.org/1999/xlink" x="0px" y="0px"
	 width="22px" height="22px" viewBox="0 0 22 22" enable-background="new 0 0 22 22" xml:space="preserve">
<g>
	<path fill="#FFFFFF" d="M11,21.5C5.211,21.5,0.502,16.789,0.502,11S5.211,0.5,11,0.5S21.498,5.21,21.498,11S16.789,21.5,11,21.5z"
		/>
	<path fill="#757575" d="M11,1c5.514,0,9.998,4.486,9.998,10c0,5.514-4.484,10-9.998,10c-5.513,0-9.998-4.486-9.998-10
		C1.002,5.486,5.487,1,11,1 M11,0C4.926,0,0.002,4.924,0.002,11c0,6.075,4.924,11,10.998,11s10.998-4.926,10.998-11
		C21.998,4.924,17.074,0,11,0L11,0z"/>
</g>
</svg>
