<?xml version="1.0" encoding="utf-8"?>
<!-- Generator: Adobe Illustrator 16.0.0, SVG Export Plug-In . SVG Version: 6.00 Build 0)  -->
<!DOCTYPE svg PUBLIC "-//W3C//DTD SVG 1.1//EN" "http://www.w3.org/Graphics/SVG/1.1/DTD/svg11.dtd">
<svg version="1.1" id="Layer_1" xmlns="http://www.w3.org/2000/svg" xmlns:xlink="http://www.w3.org/1999/xlink" x="0px" y="0px"
	 width="22px" height="22px" viewBox="0 0 22 22" enable-background="new 0 0 22 22" xml:space="preserve">
<g>
	<path fill="#FFFFFF" d="M11,2c4.963,0,9,4.038,9,9c0,4.963-4.037,9-9,9c-4.962,0-9-4.037-9-9C2,6.038,6.038,2,11,2 M11,0
		C4.925,0,0,4.925,0,11s4.925,11,11,11s11-4.925,11-11S17.075,0,11,0L11,0z"/>
</g>
<path fill="#FFFFFF" d="M11.001,3.999c3.854,0,6.978,3.134,6.978,7S14.855,18,11.001,18c-3.854,0-6.979-3.135-6.979-7.001
	S7.147,3.999,11.001,3.999z"/>
</svg>
