<svg id="Decorative_icon" data-name="Decorative icon" xmlns="http://www.w3.org/2000/svg" width="16" height="16"><g id="Icon"><path id="Path_9" data-name="Path 9" d="M8 1a7 7 0 1 0 7 7 7 7 0 0 0-7-7Zm-.131 1.881A1.189 1.189 0 0 1 9.121 4v.113a1.166 1.166 0 0 1-1.252 1.256 1.183 1.183 0 0 1-1.253-1.253A1.189 1.189 0 0 1 7.755 2.88q.057-.002.114.001Zm1.881 9.057a.437.437 0 0 1-.437.438H6.688a.437.437 0 0 1-.437-.437v-.875a.437.437 0 0 1 .438-.437h.438V8h-.439a.438.438 0 0 1-.437-.437v-.875a.437.437 0 0 1 .438-.437h1.75a.437.437 0 0 1 .438.438v3.938h.438a.437.437 0 0 1 .438.438Z" fill="#161616"/></g></svg>