<svg width="18" height="19" fill="none" xmlns="http://www.w3.org/2000/svg"><path d="M8.101 16.777a3.32 3.32 0 0 1-2.364.985h-.049a3.488 3.488 0 0 1-2.414-1.037 3.382 3.382 0 0 1-.1-4.782l.048-.05L12.113 3c.414-.43.972-.694 1.567-.74a1.86 1.86 0 0 1 1.521.56 1.77 1.77 0 0 1 .56 1.534 2.87 2.87 0 0 1-.793 1.5l-5.93 5.92c-.382.382-.74.658-1.15.25-.409-.408-.088-.785.263-1.135l4.837-4.83a.366.366 0 0 0 .007-.511l-.337-.36a.366.366 0 0 0-.519-.015l-.009.008-4.979 4.99a1.815 1.815 0 0 0-.036 2.735c1.331 1.33 2.842-.3 2.842-.3l5.894-5.873a3.3 3.3 0 0 0 .236-4.8 3.114 3.114 0 0 0-2.29-.933 3.637 3.637 0 0 0-2.567 1.114l-8.849 8.836a4.716 4.716 0 1 0 6.67 6.67l7.7-7.7a.367.367 0 0 0 0-.52l-.375-.374a.367.367 0 0 0-.519 0l-7.756 7.752Z" fill="#fff"/></svg>