<?xml version="1.0" encoding="utf-8"?>
<!-- Generator: Adobe Illustrator 16.0.0, SVG Export Plug-In . SVG Version: 6.00 Build 0)  -->
<!DOCTYPE svg PUBLIC "-//W3C//DTD SVG 1.1//EN" "http://www.w3.org/Graphics/SVG/1.1/DTD/svg11.dtd">
<svg version="1.1" id="Layer_1" xmlns="http://www.w3.org/2000/svg" xmlns:xlink="http://www.w3.org/1999/xlink" x="0px" y="0px"
	 width="20px" height="17px" viewBox="0 0 20 17" enable-background="new 0 0 20 17" xml:space="preserve">
<g>
	<path fill="#007D88" d="M14,2.5c0.275,0,0.5,0.224,0.5,0.5v12c0,0.275-0.225,0.5-0.5,0.5H2c-0.276,0-0.5-0.225-0.5-0.5V3
		c0-0.276,0.224-0.5,0.5-0.5H14 M14,1H2C0.896,1,0,1.897,0,3v12c0,1.105,0.896,2,2,2h12c1.104,0,2-0.895,2-2V3
		C16,1.897,15.104,1,14,1L14,1z"/>
</g>
</svg>
