<?xml version="1.0" encoding="utf-8"?>
<!-- Generator: Adobe Illustrator 16.0.0, SVG Export Plug-In . SVG Version: 6.00 Build 0)  -->
<!DOCTYPE svg PUBLIC "-//W3C//DTD SVG 1.1//EN" "http://www.w3.org/Graphics/SVG/1.1/DTD/svg11.dtd">
<svg version="1.1" id="Layer_1" xmlns="http://www.w3.org/2000/svg" xmlns:xlink="http://www.w3.org/1999/xlink" x="0px" y="0px"
	 width="20px" height="17px" viewBox="0 0 20 17" enable-background="new 0 0 20 17" xml:space="preserve">
<g>
	<path fill="#007D88" d="M14,2.5c0.275,0,0.5,0.224,0.5,0.5v12c0,0.275-0.225,0.5-0.5,0.5H2c-0.276,0-0.5-0.225-0.5-0.5V3
		c0-0.276,0.224-0.5,0.5-0.5H14 M14,1H2C0.896,1,0,1.897,0,3v12c0,1.105,0.896,2,2,2h12c1.104,0,2-0.895,2-2V3
		C16,1.897,15.104,1,14,1L14,1z"/>
</g>
<g>
	<path fill-rule="evenodd" clip-rule="evenodd" fill="#007D88" d="M17.435,0.016c0.011,0.065,0.067,0.09,0.107,0.127
		c0.768,0.732,1.532,1.464,2.306,2.189c0.11,0.104,0.125,0.156,0.013,0.275c-2.501,2.664-4.995,5.333-7.487,8.001
		c-1.478,1.579-2.955,3.158-4.431,4.739c-0.038,0.04-0.092,0.07-0.103,0.132c-0.011,0-0.022,0-0.032,0
		c-0.037-0.042-0.072-0.088-0.111-0.129C5.66,13.3,3.625,11.245,1.586,9.196c-0.108-0.108-0.106-0.159,0-0.265
		c0.755-0.752,1.504-1.509,2.25-2.269C3.93,6.568,3.979,6.556,4.079,6.659c1.178,1.196,2.364,2.385,3.542,3.582
		c0.102,0.103,0.149,0.099,0.249-0.005c3.143-3.37,6.289-6.735,9.437-10.102c0.034-0.037,0.065-0.079,0.098-0.119
		C17.413,0.016,17.424,0.016,17.435,0.016z"/>
</g>
</svg>
