<?xml version="1.0" encoding="utf-8"?>
<!-- Generator: Adobe Illustrator 18.1.1, SVG Export Plug-In . SVG Version: 6.00 Build 0)  -->
<svg version="1.1" id="Layer_1" xmlns="http://www.w3.org/2000/svg" xmlns:xlink="http://www.w3.org/1999/xlink" x="0px" y="0px"
	 width="24px" height="24px" viewBox="0 0 24 24" enable-background="new 0 0 24 24" xml:space="preserve">
<path id="XMLID_307_" fill="#B22D2D" d="M23.9,22C23.6,21.5,13.5,1.5,13.5,1.5S12.8,0,12,0s-1.5,1.5-1.5,1.5S0.4,21.8,0.1,22.2
	S-0.1,24,1.4,24s21.3,0,21.3,0C24.1,24,24.1,22.5,23.9,22z M10,7.5c0-0.1,0.1-0.2,0.3-0.3C10.7,7.1,11.5,7,11.9,7
	c0.6,0,1.4,0.1,1.7,0.2C13.8,7.2,14,7.3,14,7.4V9c0,2.2-0.8,6.3-0.9,6.9c0,0.1-0.2,0.1-0.3,0.1h-1.6c-0.1,0-0.3,0-0.3-0.1
	C10.8,15.3,10,11.2,10,9V7.5z M12,21.3c-1,0-1.8-0.8-1.8-1.8s0.8-1.8,1.8-1.8s1.8,0.8,1.8,1.8S13,21.3,12,21.3z"/>
</svg>
