<?xml version="1.0" encoding="utf-8"?>
<!-- Generator: Adobe Illustrator 18.1.1, SVG Export Plug-In . SVG Version: 6.00 Build 0)  -->
<svg version="1.1" id="Layer_1" xmlns="http://www.w3.org/2000/svg" xmlns:xlink="http://www.w3.org/1999/xlink" x="0px" y="0px"
	 width="24px" height="24px" viewBox="0 0 24 24" enable-background="new 0 0 24 24" xml:space="preserve">
<g>
	<path fill="#007D88" d="M15.9,8.9c0,1.3-0.5,2-1.3,2.7s-1.5,1.4-1.5,1.9c0,0.4,0.1,0.7,0.3,1c0,0.1,0,0.2-0.1,0.2h-2
		c-0.1,0-0.2,0-0.3-0.1c-0.4-0.4-0.5-1-0.5-1.4c0-0.9,0.5-1.5,1.5-2.4c0.6-0.6,1-1,1-1.5c0-0.6-0.4-1-1.6-1c-1.1,0-1.9,0.3-2.6,0.7
		c0.1,0,0-0.1,0-0.2V6.6c0-0.1,0-0.2,0.1-0.2c0.5-0.2,1.5-0.7,3.2-0.7C14.5,5.7,15.9,7.1,15.9,8.9z M10.6,17.6c0-1,0.7-1.6,1.6-1.6
		c1,0,1.6,0.6,1.6,1.6c0,0.9-0.6,1.6-1.6,1.6C11.3,19.2,10.6,18.6,10.6,17.6z"/>
</g>
</svg>
