<?xml version="1.0" encoding="utf-8"?>
<!-- Generator: Adobe Illustrator 18.1.1, SVG Export Plug-In . SVG Version: 6.00 Build 0)  -->
<svg version="1.1" id="Layer_1" xmlns="http://www.w3.org/2000/svg" xmlns:xlink="http://www.w3.org/1999/xlink" x="0px" y="0px"
	 width="200px" height="191px" viewBox="-539 275 200 191" enable-background="new -539 275 200 191" xml:space="preserve">
<g>
	<g>
		<path fill="#007D88" d="M-454.3,348.8c-2,3.6-3.2,3.2-2-0.8c-2,3.2-6.7-3.2-3.2-4.3c-4.3,0.4-4.3-1.2-0.4-2.4
			c-3.6,0-0.8-7.5,2-5.1c-2.4-3.6-1.2-4.3,1.6-1.6c-2-3.2,5.9-4.3,5.1-0.8c2-3.6,3.2-3.2,2,0.8c2-3.2,6.7,3.2,3.2,4.3
			c4.3-0.4,4.3,1.2,0.4,2.4c3.6,0,0.8,7.5-2,5.1c2.4,3.6,1.2,4.3-1.6,1.6C-447.2,351.2-455.1,352.4-454.3,348.8z"/>
	</g>
	<g>
		<path fill="#007D88" d="M-438.5,328.6c-2,3.6-3.2,2.8-2-0.8c-1.6,2.8-6.3-2.8-3.2-4c-4,0.4-4.3-1.2-0.4-2.4
			c-3.6,0-0.8-6.7,1.6-4.3c-2-3.2-0.8-4.3,1.6-1.6c-1.6-3.2,5.5-4,4.7-0.8c2-3.6,3.2-2.8,2,0.8c1.6-2.8,6.3,2.8,3.2,4
			c4-0.4,4.3,1.2,0.4,2.4c3.6,0,0.8,6.7-1.6,4.3c2,3.2,0.8,4.3-1.6,1.6C-432.2,331-439.3,332.2-438.5,328.6z"/>
	</g>
	<g>
		<path fill="#007D88" d="M-429.8,353.2c-2,4-3.6,3.6-2-0.8c-2,3.6-7.5-3.6-4-4.7c-4.7,0.4-4.7-1.2-0.4-2.4c-4,0-0.8-8.3,2.4-5.5
			c-2.4-4-1.2-4.7,1.6-1.6c-2-3.6,7.1-4.7,5.9-0.8c2-4,3.6-3.6,2,0.8c2-3.6,7.5,3.6,4,4.7c4.7-0.4,4.7,1.2,0.4,2.4
			c4,0,0.8,8.3-2.4,5.5c2.4,4,1.2,4.7-1.6,1.6C-421.9,355.9-431,357.1-429.8,353.2z"/>
	</g>
	<g>
		<path fill="#007D88" d="M-414.4,332.6c-1.6,3.6-3.2,2.8-2-0.8c-1.6,2.8-5.9-2.4-2.8-3.6c-4,0-4-1.2-0.4-2.4
			c-3.2,0-0.8-6.3,1.6-4.3c-2-3.2-0.8-4,1.6-1.6c-1.6-2.8,5.1-4,4.3-0.8c1.6-3.6,3.2-2.8,2,0.8c1.6-2.8,5.9,2.4,2.8,3.6
			c4,0,4,1.2,0.4,2.4c3.2,0,0.8,6.3-1.6,4.3c2,3.2,0.8,4-1.6,1.6C-408.1,334.6-414.8,335.8-414.4,332.6z"/>
	</g>
	<g>
		<path fill="#007D88" d="M-397,316.4c-1.6,2.8-2.8,2.4-2-0.8c-1.6,2.4-4.7-2-2.4-2.8c-3.2,0-3.6-1.6-0.4-2.4
			c-2.8,0-0.8-5.1,1.2-3.2c-1.6-2.8-0.4-3.6,1.6-1.6c-1.2-2.4,4-3.2,3.6-0.4c1.6-2.8,2.8-2.4,2,0.8c1.6-2.4,4.7,2,2.4,2.8
			c3.2,0,3.6,1.6,0.4,2.4c2.8,0,0.8,5.1-1.2,3.2c1.6,2.8,0.4,3.6-1.6,1.6C-392.6,318.4-397.8,318.8-397,316.4z"/>
	</g>
	<g>
		<path fill="#007D88" d="M-380.4,303.7c-1.2,2-2.8,1.6-2-0.8c-1.2,1.6-2.8-0.4-1.2-1.2c-2.4,0-2.8-1.6-0.4-2.4
			c-2-0.4-0.8-2.8,0.8-1.6c-1.2-2,0-3.2,1.6-1.6c-0.8-1.6,2-2,1.6,0c1.2-2,2.8-1.6,2,0.8c1.2-1.6,2.8,0.4,1.2,1.2
			c2.4,0,2.8,1.6,0.4,2.4c2,0.4,0.8,2.8-0.8,1.6c1.2,2,0,3.2-1.6,1.6C-378,305.3-380.4,305.7-380.4,303.7z"/>
	</g>
	<g>
		<path fill="#007D88" d="M-374.8,324.7c-1.2,2.4-2.8,1.6-2-0.8c-1.2,1.6-3.2-0.8-1.2-1.6c-2.4,0-2.8-1.6-0.4-2.4
			c-2-0.4-0.8-3.2,0.8-2c-1.2-2.4,0-3.2,1.6-1.6c-0.8-2,2-2.4,2-0.4c1.2-2.4,2.8-1.6,2,0.8c1.2-1.6,3.2,0.8,1.2,1.6
			c2.4,0,2.8,1.6,0.4,2.4c2,0.4,0.8,3.2-0.8,2c1.2,2.4,0,3.2-1.6,1.6C-372.1,326.3-375.2,326.7-374.8,324.7z"/>
	</g>
	<g>
		<path fill="#007D88" d="M-360.2,318.8c-1.2,1.6-2.4,1.2-2-0.8c-1.2,1.2-1.6,0.4-0.4-0.4c-2,0-2-1.6-0.4-2.4
			c-1.2-0.4-1.2-1.2,0.4-0.8c-1.2-1.6,0-2.4,1.6-1.2c-0.4-1.2,0.8-1.6,0.8,0c1.2-1.6,2.4-1.2,2,0.8c1.2-1.2,1.6-0.4,0.4,0.4
			c2,0,2,1.6,0.4,2.4c1.2,0.4,1.2,1.2-0.4,0.8c0.8,1.6-0.4,2.8-1.6,1.6C-359.4,319.9-360.2,320.3-360.2,318.8z"/>
	</g>
	<g>
		<path fill="#007D88" d="M-391.1,338.1c-1.6,3.2-3.2,2.4-2-0.8c-1.6,2.4-5.1-2-2.4-2.8c-3.6,0-3.6-1.2-0.4-2.4
			c-2.8,0-0.8-5.5,1.6-3.6c-2-2.8-0.8-4,1.6-1.6c-1.2-2.8,4.3-3.6,3.6-0.4c1.6-3.2,3.2-2.4,2,0.8c1.6-2.4,5.1,2,2.4,2.8
			c3.6,0,3.6,1.2,0.4,2.4c2.8,0,0.8,5.5-1.2,3.6c2,2.8,0.8,4-1.6,1.6C-385.9,340.1-391.8,340.9-391.1,338.1z"/>
	</g>
	<g>
		<path fill="#007D88" d="M-372.5,344.5c-1.2,2.4-2.8,2-2-0.8c-1.2,2-3.6-1.2-1.6-2c-2.8,0-3.2-1.6-0.4-2.4
			c-2.4-0.4-0.8-3.6,0.8-2.4c-1.6-2.4-0.4-3.2,1.6-1.6c-0.8-2,2.8-2.8,2.4-0.4c1.2-2.4,2.8-2,2,0.8c1.2-2,3.6,1.2,1.6,2
			c2.8,0,3.2,1.6,0.4,2.4c2.4,0.4,0.8,3.6-0.8,2.4c1.6,2.4,0.4,3.2-1.6,1.6C-369.3,346-372.9,346.8-372.5,344.5z"/>
	</g>
	<g>
		<path fill="#007D88" d="M-355.9,340.9c-1.2,2.4-2.8,1.6-2-0.8c-1.2,1.6-3.2-0.8-1.2-1.6c-2.4,0-2.8-1.6-0.4-2.4
			c-2-0.4-0.8-3.2,0.8-2c-1.2-2.4,0-3.2,1.6-1.6c-0.8-2,2.4-2.4,2-0.4c1.2-2.4,2.8-1.6,2,0.8c1.2-1.6,3.2,0.8,1.2,1.6
			c2.4,0,2.8,1.6,0.4,2.4c2,0.4,0.8,3.2-0.8,2c1.2,2.4,0,3.2-1.6,1.6C-353.1,342.5-355.9,342.9-355.9,340.9z"/>
	</g>
	<g>
		<path fill="#007D88" d="M-402.9,291.9c-1.2,2-2.8,1.6-2-0.8c-1.2,1.6-2.8-0.4-0.8-1.2c-2.4,0-2.4-1.6-0.4-2.4
			c-2-0.4-0.8-2.4,0.4-1.6c-1.2-2,0-2.8,1.6-1.6c-0.8-1.6,1.6-2,1.6-0.4c1.2-2,2.8-1.6,2,0.8c1.2-0.4,2.8,1.2,1.2,2
			c2.4,0,2.4,1.6,0.4,2.4c2,0.4,0.8,2.4-0.4,1.6c1.2,2,0,2.8-1.6,1.6C-400.9,293.5-402.9,293.9-402.9,291.9z"/>
	</g>
	<g>
		<path fill="#007D88" d="M-426.2,287.1c-1.2,2.4-2.8,2-2-0.8c-1.2,2-3.6-1.2-1.6-2c-2.8,0-3.2-1.6-0.4-2.4
			c-2.4-0.4-0.8-3.6,0.8-2.4c-1.6-2.4-0.4-3.2,1.6-1.6c-0.8-2,2.8-2.8,2.4-0.4c1.2-2.4,2.8-2,2,0.8c1.2-2,3.6,1.2,1.6,2
			c2.8,0,3.2,1.6,0.4,2.4c2.4,0.4,0.8,3.6-0.8,2.4c1.6,2.4,0.4,3.2-1.6,1.6C-423.1,288.7-426.6,289.1-426.2,287.1z"/>
	</g>
	<g>
		<path fill="#007D88" d="M-451.9,287.5c-1.6,2.8-2.8,2-2-0.8c-1.6,2-4-1.2-1.6-2.4c-2.8,0-3.2-1.6-0.4-2.4c-2.4-0.4-0.8-4,1.2-2.8
			c-1.6-2.4-0.4-3.6,1.6-1.6c-1.2-2.4,3.2-2.8,2.8-0.4c1.6-2.8,2.8-2,2,0.8c1.6-1.6,4,2,1.6,2.8c2.8,0,3.2,1.6,0.4,2.4
			c2.4,0.4,0.8,4-1.2,2.8c2,2.4,0.8,3.2-1.6,1.2C-448,289.1-452.3,289.9-451.9,287.5z"/>
	</g>
	<g>
		<path fill="#007D88" d="M-472.5,288.3c-1.2,2-2.8,1.6-2-0.8c-1.2,1.6-2.4-0.4-0.8-1.2c-2.4,0-2.4-1.6-0.4-2.4
			c-2-0.4-0.8-2.4,0.4-1.6c-1.2-2,0-2.8,1.6-1.6c-0.8-1.6,1.6-2,1.6-0.4c1.2-2,2.8-1.6,2,0.8c1.2-1.6,2.4,0.4,0.8,1.2
			c2.4,0,2.4,1.6,0.4,2.4c2,0.4,0.8,2.4-0.4,1.2c1.2,2,0,2.8-1.6,1.6C-470.5,289.9-472.9,290.3-472.5,288.3z"/>
	</g>
	<g>
		<path fill="#007D88" d="M-444,306.1c-1.6,2.8-2.8,2.4-2-0.8c-1.6,2.4-4.7-1.6-2-2.8c-3.2,0-3.6-1.6-0.4-2.4
			c-2.8,0-0.8-4.7,1.2-3.2c-1.6-2.8-0.4-3.6,1.6-1.6c-1.2-2.4,3.6-3.2,3.2-0.4c1.6-2.8,2.8-2.4,2,0.8c1.6-2.4,4.7,1.6,2,2.8
			c3.2,0,3.6,1.6,0.4,2.4c2.8,0,0.8,4.7-1.2,3.2c1.6,2.8,0.4,3.6-1.6,1.6C-439.7,308.1-444.8,308.9-444,306.1z"/>
	</g>
	<g>
		<path fill="#007D88" d="M-420.7,310.1c-1.6,2.8-2.8,2.4-2-0.8c-1.6,2.4-4.7-2-2.4-2.8c-3.2,0-3.6-1.6-0.4-2.4
			c-2.8,0-0.8-5.1,1.2-3.2c-1.6-2.8-0.4-3.6,1.6-1.6c-1.2-2.4,4-3.2,3.6-0.4c1.6-2.8,2.8-2.4,2,0.8c1.6-2.4,4.7,2,2.4,2.8
			c3.2,0,3.6,1.6,0.4,2.4c3.2,0,1.2,5.1-0.8,3.2c1.6,2.8,0.4,3.6-1.6,1.6C-416,312-421.1,312.8-420.7,310.1z"/>
	</g>
	<g>
		<path fill="#007D88" d="M-461.4,325.1c-1.6,3.2-3.2,2.4-2-0.8c-1.6,2.4-5.1-2-2.4-2.8c-3.6,0-3.6-1.2-0.4-2.4
			c-2.8,0-0.8-5.5,1.6-3.6c-2-2.8-0.8-4,1.6-1.6c-1.2-2.8,4.3-3.6,3.6-0.4c1.6-3.2,3.2-2.4,2,0.8c1.6-2.4,5.1,2,2.4,2.8
			c3.6,0,3.6,1.2,0.4,2.4c2.8,0,0.8,5.5-1.2,3.6c2,2.8,0.8,4-1.6,1.6C-456.3,327.5-461.8,328.3-461.4,325.1z"/>
	</g>
	<g>
		<path fill="#007D88" d="M-466.9,305.3c-1.2,2.4-2.8,2-2-0.8c-1.6,1.6-3.6-1.2-1.6-2c-2.8,0-2.8-1.6-0.4-2.4
			c-2.4-0.4-0.8-3.6,0.8-2.4c-1.6-2.4,0-3.2,1.6-1.6c-0.8-2,2.8-2.4,2.4-0.4c1.2-2.4,2.8-2,2,0.8c1.2-2,3.6,1.2,1.6,2
			c2.8,0,2.8,1.6,0.4,2.4c2.4,0.4,0.8,3.6-0.8,2.4c1.6,2.4,0,3.2-1.6,1.6C-463.8,306.9-467.3,307.3-466.9,305.3z"/>
	</g>
	<g>
		<path fill="#007D88" d="M-489.1,303.7c-1.2,2.4-2.8,1.6-2-0.8c-1.2,1.6-3.2-0.8-1.2-1.6c-2.4,0-2.8-1.6-0.4-2.4
			c-2-0.4-0.8-3.2,0.8-2c-1.2-2.4,0-3.2,1.6-1.6c-0.8-2,2-2.4,2-0.4c1.2-2.4,2.8-1.6,2,0.8c1.2-1.6,3.2,0.8,1.2,1.6
			c2.4,0,2.8,1.6,0.4,2.4c2,0.4,0.8,3.2-0.8,2c1.2,2.4,0,3.2-1.6,1.6C-486.3,305.3-489.1,305.7-489.1,303.7z"/>
	</g>
	<g>
		<path fill="#007D88" d="M-504.1,304.1c-1.2,1.6-2.4,1.2-2-0.8c-1.2,1.2-2,0-0.8-0.8c-2-0.4-2.4-1.6-0.4-2.4
			c-1.6-0.4-0.8-2,0.4-1.2c-0.8-1.6,0.4-2.8,2-1.2c-0.8-1.6,0.8-2,0.8-0.4c1.2-1.6,2.8-1.2,2.4,1.2c1.2-1.2,2,0,0.8,0.8
			c2,0,2.4,1.6,0.4,2.4c1.6,0.4,1.2,2-0.4,1.2c0.8,1.2-0.4,2.4-2,0.8C-502.5,305.3-504.1,305.7-504.1,304.1z"/>
	</g>
	<g>
		<path fill="#007D88" d="M-485.1,323.1c-1.2,2.4-2.8,2-2-0.8c-1.2,2-3.6-1.2-1.6-2c-2.8,0-3.2-1.6-0.4-2.4
			c-2.4-0.4-0.8-3.6,0.8-2.4c-1.6-2.4-0.4-3.2,1.6-1.6c-0.8-2,2.8-2.8,2.4-0.4c2-2,3.2-1.6,2.8,1.2c1.2-2,3.6,1.2,1.6,2
			c2.8,0,3.2,1.6,0.4,2.4c2.4,0.4,0.8,3.6-0.8,2.4c1.6,2.4,0.4,3.2-1.6,1.6C-481.6,324.7-485.1,325.5-485.1,323.1z"/>
	</g>
	<g>
		<path fill="#007D88" d="M-504.9,321.9c-1.2,2-2.8,1.6-2-1.2c-1.2,1.6-3.2-0.8-1.2-1.6c-2.8,0-2.8-1.6-0.4-2.4
			c-2-0.4-0.8-3.2,0.8-2c-1.6-2-0.4-3.2,1.6-1.2c-0.8-2,2.4-2.4,2-0.4c1.2-2.4,2.8-1.6,2,0.8c1.6-1.6,3.6,0.8,1.6,2
			c2.8,0,2.8,1.6,0.4,2.4c2,0.4,0.8,3.2-0.8,2c1.2,2.4,0,3.2-1.6,1.6C-502.1,323.5-505.3,323.9-504.9,321.9z"/>
	</g>
	<g>
		<path fill="#007D88" d="M-478.4,345.2c-1.6,3.2-3.2,2.8-2-0.8c-1.6,2.8-5.9-2.4-2.8-3.6c-3.6,0-4-1.2-0.4-2.4
			c-3.2,0-0.8-6.3,1.6-4c-2-3.2-0.8-4,1.6-1.6c-1.6-2.8,5.1-4,4.3-0.8c1.6-3.2,3.2-2.8,2,0.8c1.6-2.8,5.9,2.4,2.8,3.6
			c3.6,0,4,1.2,0.4,2.4c3.2,0,0.8,6.3-1.6,4c2,3.2,0.8,4-1.6,1.6C-472.5,347.2-479.2,348.4-478.4,345.2z"/>
	</g>
	<g>
		<path fill="#007D88" d="M-405.3,356.7c-2,3.6-3.2,3.2-2-0.8c-2,3.2-6.7-3.2-3.2-4c-4.3,0.4-4.3-1.2-0.4-2.4c-3.6,0-0.8-7.5,2-4.7
			c-2.4-3.6-1.2-4.3,1.6-1.6c-2-3.2,5.9-4.3,5.1-0.8c2-3.6,3.2-3.2,2,0.8c2-3.2,6.7,3.2,3.2,4c4.3-0.4,4.3,1.2,0.4,2.4
			c3.6,0,0.8,7.5-2,4.7c2.4,3.6,1.2,4.3-1.6,1.6C-398.2,359.1-406.1,360.3-405.3,356.7z"/>
	</g>
	<g>
		<path fill="#007D88" d="M-383.5,362.2c-1.6,3.2-3.2,2.4-2-0.8c-1.6,2.4-5.1-2-2.4-2.8c-3.6,0-3.6-1.2-0.4-2.4
			c-2.8,0-0.8-5.5,1.6-3.6c-2-2.8-0.8-4,1.6-1.6c-1.2-2.8,4.3-3.6,3.6-0.4c1.6-3.2,3.2-2.4,2,0.8c1.6-2.4,5.1,2,2.4,2.8
			c3.6,0,3.6,1.2,0.4,2.4c2.8,0,0.8,5.5-1.6,3.6c2,2.8,0.8,4-1.6,1.6C-378.4,364.2-383.9,365-383.5,362.2z"/>
	</g>
	<g>
		<path fill="#007D88" d="M-362.2,364.6c-1.6,2.8-2.8,2.4-2-0.8c-1.6,2.4-4.7-2-2.4-2.8c-3.2,0-3.6-1.6-0.4-2.4
			c-2.8,0-0.8-5.1,1.2-3.2c-1.6-2.8-0.4-3.6,1.6-1.6c-1.2-2.4,4-3.2,3.6-0.4c1.6-2.8,2.8-2.4,2,0.8c1.6-2.4,4.7,2,2.4,2.8
			c3.2,0,3.6,1.6,0.4,2.4c2.8,0,0.8,5.1-1.2,3.2c1.6,2.8,0.4,3.6-1.6,1.6C-357.5,366.6-362.6,367.4-362.2,364.6z"/>
	</g>
	<g>
		<path fill="#007D88" d="M-344,361.5c-1.2,1.6-2.4,1.2-2-0.8c-1.2,1.2-2,0-0.8-0.8c-2,0-2.4-1.6-0.4-2.4c-1.6-0.4-1.2-1.6,0.4-0.8
			c-0.8-2,0.4-2.8,1.6-1.6c-0.4-1.6,1.2-1.6,0.8,0c1.2-1.6,2.4-1.2,2,0.8c1.2-1.2,2,0,0.8,0.8c2,0,2.4,1.6,0.4,2.4
			c1.6,0.4,1.2,1.6-0.4,0.8c0.8,2-0.4,2.8-1.6,1.6C-342.4,362.6-344,363-344,361.5z"/>
	</g>
	<g>
		<path fill="#007D88" d="M-532.2,346c-0.8,1.2-2.4,0.8-2-0.8c-0.8,0.8-1.2,0.8,0,0c-1.6,0-2-1.6-0.4-2.4c-1.2-0.4-1.2-0.4,0,0
			c-0.8-1.6,0.4-2.4,1.6-1.6c-0.4-1.2,0-1.2,0,0c0.8-1.2,2.4-0.8,2,0.8c0.8-0.8,1.2-0.8,0,0c1.6,0,2,1.6,0.4,2.4
			c1.2,0.4,1.2,0.4,0,0C-529.8,346-531,347.2-532.2,346C-532.2,347.2-532.2,347.2-532.2,346z"/>
	</g>
	<g>
		<path fill="#007D88" d="M-520.7,322.3c-1.2,1.6-2.4,1.2-2.4-0.8c-1.2,1.2-1.6,0.4-0.4-0.4c-2,0-2-1.6-0.4-2.4
			c-1.6-0.4-1.2-1.2,0.4-0.8c-0.8-1.6,0.4-2.8,1.6-1.6c-0.4-1.6,0.8-1.6,0.8,0c1.2-1.6,2.4-1.2,2,0.8c1.2-1.2,1.6-0.4,0.4,0.4
			c2,0,2,1.6,0.4,2.4c1.6,0.4,1.2,1.2-0.4,0.8c0.8,1.6-0.4,2.8-1.6,1.6C-519.9,323.9-520.7,323.9-520.7,322.3z"/>
	</g>
	<g>
		<path fill="#007D88" d="M-500.9,342.9c-1.6,2.8-2.8,2-2-0.8c-1.6,2-4.3-1.6-2-2.4c-3.2,0-3.2-1.6-0.4-2.4c-2.4,0-0.8-4.3,1.2-2.8
			c-1.6-2.8-0.4-3.6,1.6-1.6c-1.2-2.4,3.2-2.8,3.2-0.4c1.6-2.8,2.8-2,2,0.8c1.6-2,4.3,1.6,2,2.4c3.2,0,3.2,1.6,0.4,2.4
			c2.4,0,0.8,4.3-1.2,2.8c1.6,2.8,0.4,3.6-1.6,1.6C-497,344.9-501.3,345.6-500.9,342.9z"/>
	</g>
	<g>
		<path fill="#007D88" d="M-519.5,341.7c-1.6,2-2.8,1.6-2.4-1.2c-1.2,1.6-3.2-0.8-1.2-1.6c-2.4,0-2.8-1.6-0.4-2.4
			c-2-0.4-0.8-3.2,0.8-2c-1.2-2.4,0-3.2,1.6-1.6c-0.8-2,2-2.4,2-0.4c1.2-2.4,2.8-1.6,2,0.8c1.2-1.6,3.2,0.8,1.2,1.6
			c2.4,0,2.8,1.6,0.4,2.4c2,0.4,0.8,3.2-0.8,2c1.2,2.4,0,3.2-1.6,1.6C-516.8,343.3-519.9,343.7-519.5,341.7z"/>
	</g>
	<g>
		<path fill="#007D88" d="M-492.6,363.4c-1.6,2.8-2.8,2.4-2-0.8c-1.6,2.4-4.7-2-2-2.8c-3.2,0-3.6-1.6-0.4-2.4
			c-2.8,0-0.8-5.1,1.2-3.2c-1.6-2.8-0.4-3.6,1.6-1.6c-1.2-2.4,4-3.2,3.6-0.4c1.6-2.8,2.8-2.4,2,0.8c1.6-2.4,4.7,2,2,2.8
			c3.2,0,3.6,1.6,0.4,2.4c2.8,0,0.8,5.1-1.2,3.2c1.6,2.8,0.4,3.6-1.6,1.6C-487.9,365.4-493,366.2-492.6,363.4z"/>
	</g>
	<g>
		<path fill="#007D88" d="M-470.5,367c-2,3.6-3.2,2.8-2-0.8c-1.6,2.8-6.3-2.8-3.2-4c-4,0.4-4.3-1.2-0.4-2.4c-3.6,0-0.8-6.7,1.6-4.3
			c-2-3.2-0.8-4.3,1.6-1.6c-1.6-3.2,5.5-4,4.7-0.8c2-3.6,3.2-2.8,2,0.8c1.6-2.8,6.3,2.8,3.2,4c4-0.4,4.3,1.2,0.4,2.4
			c3.6,0,0.8,6.7-1.6,4.3c2,3.2,0.8,4.3-1.6,1.6C-463.8,369.4-470.9,370.1-470.5,367z"/>
	</g>
	<g>
		<path fill="#007D88" d="M-446.4,371.3c-2,3.6-3.2,3.2-2-0.8c-2,3.2-6.7-3.2-3.2-4c-4,0.4-4.3-1.2-0.4-2.4c-3.6,0-0.8-7.1,2-4.7
			c-2.4-3.6-1.2-4.3,1.6-1.6c-1.6-3.2,5.9-4.3,5.1-0.8c2-3.6,3.2-3.2,2,0.8c2-3.2,6.7,3.2,3.2,4c4-0.4,4.3,1.2,0.4,2.4
			c3.6,0,0.8,7.1-2,4.7c2.4,3.6,1.2,4.3-1.6,1.6C-439.3,373.7-447.2,374.9-446.4,371.3z"/>
	</g>
	<g>
		<path fill="#007D88" d="M-421.1,375.7c-2,4-3.2,3.2-2-0.8c-2,3.2-7.1-3.2-3.6-4.3c-4.3,0.4-4.3-1.2-0.4-2.4c-4,0-0.8-7.9,2-5.1
			c-2-3.6-0.8-4.3,2-1.2c-2-3.2,6.3-4.3,5.5-0.8c2-4,3.2-3.2,2,0.8c2-3.2,7.1,3.2,3.6,4.3c4.3-0.4,4.3,1.2,0.4,2.4
			c4,0,0.8,7.9-2,5.1c2.4,3.6,1.2,4.7-1.6,1.6C-413.6,378.4-421.9,379.6-421.1,375.7z"/>
	</g>
	<g>
		<path fill="#007D88" d="M-395.8,380.4c-1.6,3.6-3.2,2.8-2-0.8c-1.6,2.8-5.9-2.4-2.8-3.6c-4,0-4-1.2-0.4-2.4
			c-3.2,0-0.8-6.3,1.6-4.3c-2-3.2-0.8-4,1.6-1.6c-1.6-2.8,5.1-4,4.3-0.8c1.6-3.6,3.2-2.8,2,0.8c1.6-2.8,5.9,2.4,2.8,3.6
			c4,0,4,1.2,0.4,2.4c3.2,0,0.8,6.3-1.6,4.3c2,3.2,0.8,4-1.6,1.6C-389.9,382.8-396.6,383.6-395.8,380.4z"/>
	</g>
	<g>
		<path fill="#007D88" d="M-372.9,384c-1.6,3.2-3.2,2.4-2-0.8c-1.6,2.4-5.1-2-2.4-2.8c-3.6,0-3.6-1.2-0.4-2.4
			c-2.8,0-0.8-5.5,1.6-3.6c-2-2.8-0.8-4,1.6-1.6c-1.2-2.8,4.3-3.6,3.6-0.4c1.6-3.2,3.2-2.4,2,0.8c1.6-2.4,5.1,2,2.4,2.8
			c3.6,0,3.6,1.2,0.4,2.4c2.8,0,0.8,5.5-1.6,3.6c2,2.8,0.8,4-1.6,1.6C-367.7,386-373.3,386.8-372.9,384z"/>
	</g>
	<g>
		<path fill="#007D88" d="M-351.5,383.2c-1.2,2-2.8,1.6-2-0.8c-1.2,1.6-3.2-0.8-1.2-1.6c-2.4,0-2.8-1.6-0.4-2.4
			c-2-0.4-0.8-2.8,0.8-1.6c-1.2-2,0-3.2,1.6-1.6c-0.8-2,2-2.4,2-0.4c1.2-2,2.8-1.6,2,0.8c1.2-1.6,3.2,0.8,1.2,1.6
			c2.4,0,2.8,1.6,0.4,2.4c2,0.4,0.8,2.8-0.8,1.6c1.2,2,0,3.2-1.6,1.6C-348.8,384.8-351.5,385.2-351.5,383.2z"/>
	</g>
	<g>
		<path fill="#007D88" d="M-349.2,404.1c-1.2,2-2.8,1.6-2-0.8c-1.2,1.6-3.2-0.8-1.2-1.6c-2.4,0-2.8-1.6-0.4-2.4
			c-2-0.4-0.8-2.8,0.8-2c-1.2-2,0-3.2,1.6-1.6c-0.8-2,2-2.4,2-0.4c1.2-2,2.8-1.6,2,0.8c1.2-1.6,3.2,0.8,1.2,1.6
			c2.4,0,2.8,1.6,0.4,2.4c2,0.4,0.8,2.8-0.8,2c1.2,2,0,3.2-1.6,1.6C-346.4,405.7-349.2,406.1-349.2,404.1z"/>
	</g>
	<g>
		<path fill="#007D88" d="M-365.8,404.5c-1.6,2.8-2.8,2-2-0.8c-1.6,2-4.3-1.6-2-2.4c-3.2,0-3.2-1.6-0.4-2.4
			c-2.4-0.4-0.8-4.3,1.2-2.8c-1.6-2.8-0.4-3.6,1.6-1.6c-1.2-2.4,3.2-2.8,3.2-0.4c1.6-2.8,2.8-2,2,0.8c1.6-2,4.3,1.6,2,2.4
			c3.2,0,3.2,1.6,0.4,2.4c2.4,0,0.8,4.3-1.2,2.8c1.6,2.8,0.4,3.6-1.6,1.6C-361.8,406.5-366.2,406.9-365.8,404.5z"/>
	</g>
	<g>
		<path fill="#007D88" d="M-386.3,404.5c-1.6,3.2-3.2,2.4-2-0.8c-1.6,2.4-5.1-2-2.4-3.2c-3.6,0-3.6-1.2-0.4-2.4
			c-2.8,0-0.8-5.5,1.6-3.6c-2-2.8-0.8-4,1.6-1.6c-1.2-2.8,4.3-3.6,4-0.4c1.6-3.2,3.2-2.4,2,0.8c1.6-2.4,5.1,2,2.4,3.2
			c3.6,0,3.6,1.2,0.4,2.4c2.8,0,0.8,5.5-1.6,3.6c2,2.8,0.8,4-1.6,1.6C-381.2,406.5-386.7,407.3-386.3,404.5z"/>
	</g>
	<g>
		<path fill="#007D88" d="M-410.8,399c-1.6,3.6-3.2,2.8-2-0.8c-1.6,2.8-6.3-2.8-3.2-4c-4,0.4-4-1.2-0.4-2.4c-3.6,0-0.8-6.7,1.6-4.3
			c-2-3.2-0.8-4.3,1.6-1.6c-1.6-3.2,5.5-4,4.7-0.8c1.6-3.6,3.2-2.8,2,0.8c1.6-2.8,6.3,2.8,3.2,3.6c4-0.4,4,1.2,0.4,2.4
			c3.6,0,0.8,6.7-1.6,4.3c2,3.2,0.8,4.3-1.6,1.6C-404.5,401.4-411.6,402.2-410.8,399z"/>
	</g>
	<g>
		<path fill="#007D88" d="M-436.5,392.7c-2,4-3.2,3.2-2-0.8c-2,3.2-7.1-3.2-3.6-4.3c-4.3,0.4-4.3-1.2-0.4-2.4c-4,0-0.8-7.5,2-5.1
			c-2.4-3.6-1.2-4.3,1.6-1.6c-2-3.2,6.3-4.3,5.5-0.8c2-4,3.2-3.2,2,0.8c2-3.2,7.1,3.2,3.6,4.3c4.3-0.4,4.3,1.2,0.4,2.4
			c4,0,0.8,7.9-2,5.1c2.4,3.6,1.2,4.3-1.6,1.6C-429.4,395.4-437.7,396.6-436.5,392.7z"/>
	</g>
	<g>
		<path fill="#007D88" d="M-463,392.3c-2,4.3-3.6,3.6-2-0.8c-2,3.6-7.9-4-4-4.7c-4.7,0.4-4.7-1.2-0.4-2.4c-4.3,0-0.8-8.7,2.4-5.9
			c-2.8-4-1.6-4.7,1.6-1.6c-2-3.6,7.1-5.1,6.3-0.8c2-4.3,3.6-3.6,2,0.8c2-3.6,7.9,4,4,4.7c4.7-0.4,4.7,1.2,0.4,2.4
			c4.3,0,0.8,8.7-2.4,5.9c2.8,4,1.6,4.7-1.6,1.6C-454.7,394.7-464.2,396.2-463,392.3z"/>
	</g>
	<g>
		<path fill="#007D88" d="M-483.2,381.6c-1.6,2.8-2.8,2.4-2-0.8c-1.6,2.4-4.7-2-2.4-2.8c-3.2,0-3.6-1.6-0.4-2.4
			c-2.8,0-0.8-5.1,1.2-3.2c-1.6-2.8-0.4-4,1.6-1.6c-1.2-2.4,4-3.2,3.6-0.4c1.6-2.8,3.2-2.4,2,0.8c1.6-2.4,4.7,2,2.4,2.8
			c3.2,0,3.6,1.6,0.4,2.4c2.8,0,0.8,5.1-1.2,3.2c1.6,2.8,0.4,3.6-1.6,1.6C-478.4,383.6-483.9,384.4-483.2,381.6z"/>
	</g>
	<g>
		<path fill="#007D88" d="M-513.2,362.6c-1.6,2.4-2.8,2-2-0.8c-1.6,2-4-1.2-1.6-2c-2.8,0-3.2-1.6-0.4-2.4c-2.4-0.4-0.8-4,1.2-2.4
			c-2-2.4-0.8-3.6,1.2-1.6c-1.2-2.4,3.2-2.8,2.8-0.4c1.6-2.4,2.8-2,2,0.8c1.6-2,4,1.2,1.6,2c2.8,0,3.2,1.6,0.4,2.4
			c2.4,0.4,0.8,4-1.2,2.4c1.6,2.4,0.4,3.6-1.6,1.6C-509.6,364.6-513.6,365.4-513.2,362.6z"/>
	</g>
	<g>
		<path fill="#007D88" d="M-530.2,363.4c-1.2,2-2.8,1.6-2-0.8c-1.2,1.6-2.4-0.4-0.8-1.2c-2.4,0-2.4-1.6-0.4-2.4
			c-2-0.4-0.8-2.4,0.4-1.2c-1.2-2,0-2.8,1.6-1.6c-0.8-1.6,1.6-2,1.6-0.4c1.2-2,2.8-1.6,2,0.8c1.2-1.6,2.4,0.4,0.8,1.2
			c2.4,0,2.4,1.6,0.4,2.4c2,0.4,0.8,2.4-0.4,1.2c1.2,2,0,2.8-1.6,1.6C-527.8,364.6-530.2,365-530.2,363.4z"/>
	</g>
	<g>
		<path fill="#007D88" d="M-502.5,385.6c-1.6,3.2-3.2,2.8-2-0.8c-1.6,2.4-5.5-2.4-2.8-3.6c-3.6,0-4-1.2-0.4-2.4
			c-3.2,0-0.8-5.9,1.6-4c-2-3.2-0.8-4,1.6-1.6c-1.6-2.8,4.7-3.6,4.3-0.8c1.6-3.2,3.2-2.8,2,0.8c1.6-2.8,5.5,2.4,2.8,3.6
			c3.6,0,4,1.2,0.4,2.4c3.2,0,0.8,5.9-1.6,4c2,3.2,0.8,4-1.6,1.6C-496.6,387.5-502.9,388.3-502.5,385.6z"/>
	</g>
	<g>
		<path fill="#007D88" d="M-484.3,404.9c-2,4-3.2,3.2-2-0.8c-2,3.2-7.1-3.2-3.6-4.3c-4.3,0.4-4.3-1.2-0.4-2c-3.6,0-0.8-7.5,2-5.1
			c-2.4-3.6-1.2-4.3,1.6-1.6c-2-3.2,6.3-4.3,5.1-0.8c2-4,3.2-3.2,2,0.8c2-3.2,7.1,3.2,3.6,4.3c4.3-0.4,4.3,1.2,0.4,2.4
			c3.6,0,0.8,7.5-2,5.1c2.4,3.6,1.2,4.3-1.6,1.6C-477.2,407.3-485.1,408.5-484.3,404.9z"/>
	</g>
	<g>
		<path fill="#007D88" d="M-449.2,408.5c-1.6,3.2-3.2,2.8-2-0.8c-1.6,2.8-5.5-2-2.4-3.2c-3.6,0-4-1.2-0.4-2.4
			c-3.2,0-0.8-5.5,1.6-3.6c-2-3.2-0.8-4,1.6-1.6c-1.6-2.8,4.7-3.6,4-0.4c1.6-3.2,3.2-2.8,2,0.8c1.6-2.8,5.5,2,2.4,3.2
			c3.6,0,4,1.2,0.4,2.4c3.2,0,0.8,5.9-1.6,3.6c2,3.2,0.8,4-1.6,1.6C-443.6,410.5-449.6,411.7-449.2,408.5z"/>
	</g>
	<g>
		<path fill="#007D88" d="M-467.7,420.7c-2,3.6-3.2,3.2-2-0.8c-2,3.2-6.3-2.8-3.2-4c-4,0.4-4.3-1.2-0.4-2.4c-3.6,0-0.8-6.7,2-4.3
			c-2-3.2-0.8-4.3,1.6-1.6c-1.6-3.2,5.5-4,4.7-0.8c2-3.6,3.2-3.2,2,0.8c2-3.2,6.3,2.8,3.2,4c4-0.4,4.3,1.2,0.4,2.4
			c3.6,0,0.8,6.7-2,4.3c2,3.2,0.8,4.3-1.6,1.6C-461.4,423.1-468.5,423.9-467.7,420.7z"/>
	</g>
	<g>
		<path fill="#007D88" d="M-427.4,416c-1.6,3.2-3.2,2.8-2-0.8c-1.6,2.8-5.5-2.4-2.8-3.6c-3.6,0-4-1.2-0.4-2.4c-3.2,0-0.8-5.9,1.6-4
			c-2-3.2-0.8-4,1.6-1.6c-1.6-2.8,4.7-3.6,4.3-0.8c1.6-3.2,3.2-2.8,2,0.8c1.6-2.8,5.5,2.4,2.8,3.6c3.6,0,4,1.2,0.4,2.4
			c3.2,0,0.8,5.9-1.6,4c2,3.2,0.8,4-1.6,1.6C-421.9,418.4-428.2,419.2-427.4,416z"/>
	</g>
	<g>
		<path fill="#007D88" d="M-403.3,423.1c-1.6,3.6-3.2,2.8-2-0.8c-1.6,2.8-5.9-2.8-2.8-3.6c-4,0-4-1.2-0.4-2.4
			c-3.2,0-0.8-6.3,1.6-4.3c-2-3.2-0.8-4.3,1.6-1.6c-1.6-2.8,5.1-4,4.3-0.8c1.6-3.6,3.2-2.8,2,0.8c1.6-2.8,5.9,2.4,2.8,3.6
			c4,0,4,1.2,0.4,2.4c3.2,0,0.8,6.3-1.6,4.3c2,3.2,0.8,4.3-1.6,1.6C-397,425.1-403.7,426.3-403.3,423.1z"/>
	</g>
	<g>
		<path fill="#007D88" d="M-379.2,425.9c-1.6,2.8-2.8,2-2-0.8c-1.6,2-4.3-1.6-2-2.4c-3.2,0-3.2-1.6-0.4-2.4
			c-2.4-0.4-0.8-4.3,1.2-2.8c-1.6-2.8-0.4-3.6,1.6-1.6c-1.2-2.4,3.6-2.8,3.2-0.4c1.6-2.8,2.8-2,2,0.8c1.6-2,4.3,1.6,2,2.4
			c3.2,0,3.2,1.6,0.4,2.4c2.4,0,0.8,4.3-1.2,2.8c1.6,2.8,0.4,3.6-1.6,1.6C-374.8,427.9-379.6,428.3-379.2,425.9z"/>
	</g>
	<g>
		<path fill="#007D88" d="M-360.6,423.1c-1.2,2.4-2.8,1.6-2-0.8c-1.2,1.6-3.2-0.8-1.2-1.6c-2.4,0-2.8-1.6-0.4-2.4
			c-2-0.4-0.8-3.2,0.8-2c-1.2-2.4,0-3.2,1.6-1.6c-0.8-2,2-2.4,2-0.4c1.2-2.4,2.8-1.6,2,0.8c1.2-1.6,3.2,0.8,1.2,1.6
			c2.4,0,2.8,1.6,0.4,2.4c2,0.4,0.8,3.2-0.8,2c1.2,2.4,0,3.2-1.6,1.6C-357.9,424.7-361,425.1-360.6,423.1z"/>
	</g>
	<g>
		<path fill="#007D88" d="M-397.4,445.3c-1.6,3.2-3.2,2.8-2-0.8c-1.6,2.8-5.5-2.4-2.8-3.6c-3.6,0-4-1.2-0.4-2.4
			c-3.2,0-0.8-5.9,1.6-4c-2-3.2-0.8-4,1.6-1.6c-1.6-2.8,4.7-4,4.3-0.8c1.6-3.2,3.2-2.8,2,0.8c1.6-2.8,5.5,2.4,2.8,3.6
			c3.6,0,4,1.2,0.4,2.4c3.2,0,0.8,6.3-1.6,4c2,3.2,0.8,4-1.6,1.6C-391.8,447.2-398.2,448.4-397.4,445.3z"/>
	</g>
	<g>
		<path fill="#007D88" d="M-377.2,441.3c-0.8,1.6-2.4,0.8-2-0.8c-0.8,0.8-1.2,0.4-0.4-0.4c-1.6,0-2-1.6-0.4-2.4
			c-1.2-0.4-1.2-0.8,0-0.4c-0.8-1.6,0.4-2.4,1.6-1.6c-0.4-1.2,0.4-1.2,0.4,0c0.8-1.6,2.4-0.8,2,0.8c0.8-0.8,1.2-0.4,0.4,0.4
			c1.6,0,2,1.6,0.4,2.4c1.2,0.4,1.2,0.8,0,0.4C-374.1,441.3-375.2,442.1-377.2,441.3C-376.4,442.5-376.8,442.5-377.2,441.3z"/>
	</g>
	<g>
		<path fill="#007D88" d="M-412.4,460.3c-1.6,2.8-2.8,2-2-0.8c-1.6,2-4.3-1.6-2-2.4c-3.2,0-3.2-1.6-0.4-2.4c-2.8,0-0.8-4.7,1.2-2.8
			c-1.6-2.8-0.4-3.6,1.6-1.6c-1.2-2.4,3.6-3.2,3.2-0.4c1.6-2.8,2.8-2,2,0.8c1.6-2,4.3,1.6,2,2.4c3.2,0,3.2,1.6,0.4,2.4
			c2.8,0,0.8,4.7-1.2,2.8c1.6,2.8,0.4,3.6-1.6,1.6C-408.1,462.2-412.8,463-412.4,460.3z"/>
	</g>
	<g>
		<path fill="#007D88" d="M-422.3,440.1c-2,4-3.2,3.2-2-0.8c-2,3.2-6.7-3.2-3.2-4.3c-4.3,0.4-4.3-1.2-0.4-2.4c-3.6,0-0.8-7.5,2-5.1
			c-2.4-3.6-1.2-4.3,1.6-1.6c-2-3.2,6.3-4.3,5.1-0.8c2-4,3.2-3.2,2,0.8c2-3.2,6.7,3.2,3.2,4.3c4.3-0.4,4.3,1.2,0.4,2.4
			c3.6,0,0.8,7.5-2,5.1c2.4,3.6,1.2,4.3-1.6,1.6C-415.2,442.5-423.1,443.7-422.3,440.1z"/>
	</g>
	<g>
		<path fill="#007D88" d="M-446,430.2c-1.6,3.2-3.2,2.8-2-0.8c-1.6,2.8-5.5-2-2.4-3.2c-3.6,0-4-1.2-0.4-2.4c-3.2,0-0.8-5.9,1.6-4
			c-2-3.2-0.8-4,1.6-1.6c-1.6-2.8,4.7-3.6,4-0.4c1.6-3.2,3.2-2.8,2,0.8c1.6-2.8,5.5,2,2.4,3.2c3.6,0,4,1.2,0.4,2.4
			c3.2,0,0.8,5.5-1.6,3.6c2,3.2,0.8,4-1.6,1.6C-440.5,432.6-446.4,433.4-446,430.2z"/>
	</g>
	<g>
		<path fill="#007D88" d="M-466.9,442.1c-1.6,3.6-3.2,2.8-2-0.8c-1.6,2.8-5.9-2.8-2.8-3.6c-4,0-4-1.2-0.4-2.4
			c-3.2,0-0.8-6.3,1.6-4.3c-2-3.2-0.8-4.3,1.6-1.6c-1.6-2.8,5.1-4,4.7-0.8c1.6-3.6,3.2-2.8,2,0.8c1.6-2.8,5.9,2.8,2.8,3.6
			c4,0,4,1.2,0.4,2.4c3.2,0,0.8,6.3-1.6,4.3c2,3.2,0.8,4.3-1.6,1.6C-460.6,444.1-467.7,445.3-466.9,442.1z"/>
	</g>
	<g>
		<path fill="#007D88" d="M-441.6,450.8c-1.6,2.8-2.8,2.4-2-0.8c-1.6,2.4-4.7-2-2.4-2.8c-3.2,0-3.6-1.6-0.4-2.4
			c-2.8,0-0.8-5.1,1.2-3.2c-1.6-2.8-0.4-3.6,1.6-1.6c-1.2-2.4,4-3.2,3.6-0.4c1.6-2.8,2.8-2.4,2,0.8c1.6-2.4,4.7,2,2.4,2.8
			c3.2,0,3.6,1.6,0.4,2.4c2.8,0,0.8,5.1-1.2,3.2c1.6,2.8,0.4,3.6-1.6,1.6C-436.9,453.2-442.4,453.6-441.6,450.8z"/>
	</g>
	<g>
		<path fill="#007D88" d="M-428.2,464.2c-1.2,2-2.8,1.6-2-0.8c-1.2,1.6-2.8-0.4-1.2-1.2c-2.4,0-2.8-1.6-0.4-2.4
			c-2-0.4-0.8-2.8,0.8-1.6c-1.2-2,0-3.2,1.6-1.6c-0.8-2,2-2.4,1.6-0.4c1.2-2,2.8-1.6,2,0.8c1.2-1.6,2.8,0.4,1.2,1.2
			c2.4,0,2.8,1.6,0.4,2.4c2,0.4,0.8,2.8-0.8,1.6c1.2,2,0,3.2-1.6,1.6C-425.8,465.8-428.2,466.2-428.2,464.2z"/>
	</g>
	<g>
		<path fill="#007D88" d="M-444,464.6c-0.8,1.6-2.4,0.8-2-0.8c-0.8,0.8-1.2,0.4,0-0.4c-1.6,0-2-1.6-0.4-2.4c-1.2-0.4-1.2-0.8,0-0.4
			c-0.8-1.6,0.4-2.4,1.6-1.6c-0.4-1.2,0.4-1.2,0.4,0c0.8-1.6,2.4-0.8,2,0.8c0.8-0.8,1.2-0.4,0,0.4c1.6,0,2,1.6,0.4,2.4
			c1.2,0.4,1.2,0.8,0,0.4C-440.9,465-442,465.8-444,464.6C-443.2,465.8-443.6,466.2-444,464.6z"/>
	</g>
	<g>
		<path fill="#007D88" d="M-461.8,462.2c-1.6,3.2-3.2,2.8-2-0.8c-1.6,2.8-5.5-2.4-2.4-3.2c-3.6,0-4-1.2-0.4-2.4
			c-3.2,0-0.8-5.5,1.6-3.6c-2-3.2-0.8-4,1.6-1.6c-1.6-2.8,4.7-3.6,4-0.4c1.6-3.2,3.2-2.8,2,0.8c1.6-2.8,5.5,2,2.4,3.2
			c3.6,0,4,1.2,0.4,2.4c3.2,0,0.8,5.9-1.6,3.6c2,3.2,0.8,4-1.6,1.6C-456.3,464.2-462.2,465.4-461.8,462.2z"/>
	</g>
	<g>
		<path fill="#007D88" d="M-486.3,452c-1.6,2.8-2.8,2.4-2-0.8c-1.6,2.4-4.3-1.6-2-2.8c-3.2,0-3.6-1.6-0.4-2.4
			c-2.8,0-0.8-4.7,1.2-3.2c-1.6-2.8-0.4-3.6,1.6-1.6c-1.2-2.4,3.6-3.2,3.2-0.4c1.6-2.8,2.8-2.4,2,0.8c1.6-2.4,4.3,1.6,2,2.4
			c3.2,0,3.6,1.6,0.4,2.4c2.8,0,0.8,4.7-1.2,3.2c1.6,2.8,0.4,3.6-1.6,1.6C-482,453.9-486.7,454.7-486.3,452z"/>
	</g>
	<g>
		<path fill="#007D88" d="M-489.5,427.1c-1.6,3.2-3.2,2.8-2-0.8c-1.6,2.8-5.5-2.4-2.8-3.6c-3.6,0-4-1.2-0.4-2.4
			c-3.2,0-0.8-5.9,1.6-4c-2-3.2-0.8-4,1.6-1.6c-1.6-2.8,4.7-4,4.3-0.8c1.6-3.2,3.2-2.8,2,0.8c1.6-2.8,5.5,2.4,2.8,3.6
			c3.6,0,4,1.2,0.4,2.4c3.2,0,0.8,6.3-1.6,4c2,3.2,0.8,4-1.6,1.6C-483.5,429.4-489.9,430.2-489.5,427.1z"/>
	</g>
	<g>
		<path fill="#007D88" d="M-502.5,437.3c-1.6,2.4-2.8,2-2-0.8c-1.2,2-4-1.2-1.6-2c-2.8,0-3.2-1.6-0.4-2.4c-2.4-0.4-0.8-4,0.8-2.4
			c-1.6-2.4-0.4-3.6,1.6-1.6c-1.2-2,2.8-2.8,2.8-0.4c1.6-2.4,2.8-2,2,0.8c1.2-2,4,1.2,1.6,2c2.8,0,3.2,1.6,0.4,2.4
			c2.4,0.4,0.8,4-0.8,2.4c1.6,2.4,0.4,3.6-1.6,1.6C-499,438.9-502.9,439.7-502.5,437.3z"/>
	</g>
	<g>
		<path fill="#007D88" d="M-517.9,428.3c-1.2,2-2.8,1.6-2-0.8c-1.2,1.6-2.4-0.4-0.8-1.2c-2.4,0-2.4-1.6-0.4-2.4
			c-2-0.4-0.8-2.4,0.4-1.2c-1.2-2,0-2.8,1.6-1.6c-0.8-1.6,1.6-2,1.6-0.4c1.2-2,2.8-1.6,2,0.8c1.2-1.6,2.4,0.4,0.8,1.2
			c2.4,0,2.4,1.6,0.4,2.4c2,0.4,0.8,2.4-0.4,1.6c1.2,2,0,2.8-1.6,1.6C-515.6,429.8-517.9,430.2-517.9,428.3z"/>
	</g>
	<g>
		<path fill="#007D88" d="M-505.7,409.3c-1.6,3.2-3.2,2.8-2-0.8c-1.6,2.8-5.5-2.4-2.8-3.2c-3.6,0-4-1.2-0.4-2.4
			c-3.2,0-0.8-5.9,1.6-4c-2-3.2-0.8-4,1.6-1.6c-1.6-2.8,4.7-3.6,4.3-0.8c1.6-3.2,3.2-2.8,2,0.8c1.6-2.8,5.5,2.4,2.8,3.2
			c3.6,0,4,1.2,0.4,2.4c3.2,0,0.8,5.9-1.6,4c2,3.2,0.8,4-1.6,1.6C-500.1,411.3-506.1,412-505.7,409.3z"/>
	</g>
	<g>
		<path fill="#007D88" d="M-519.1,386c-1.2,2.4-2.8,1.6-2-0.8c-1.2,1.6-3.6-0.8-1.2-1.6c-2.8,0-2.8-1.6-0.4-2.4
			c-2-0.4-0.8-3.6,0.8-2c-1.2-2.4,0-3.2,1.6-1.6c-1.2-2,2.4-2.4,2,0c1.2-2.4,2.8-1.6,2,0.8c1.2-1.6,3.6,0.8,1.2,1.6
			c2.8,0,2.8,1.6,0.4,2.4c2,0.4,0.8,3.2-0.8,2c1.2,2.4,0,3.2-1.6,1.6C-516.4,387.5-519.5,388.3-519.1,386z"/>
	</g>
	<g>
		<path fill="#007D88" d="M-533.4,388.3c-1.2,2-2.4,1.2-2-0.8c-1.2,1.2-2.4-0.4-0.8-1.2c-2.4,0-2.4-1.6-0.4-2.4
			c-1.6-0.4-0.8-2,0.4-1.2c-1.2-2,0-2.8,1.6-1.6c-0.4-1.6,1.2-2,1.2,0c1.2-2,2.4-1.2,2,0.8c1.6-1.2,2.8,0.4,1.2,1.2
			c2.4,0,2.4,1.6,0.4,2.4c1.6,0.4,0.8,2-0.4,1.2c1.2,2,0,2.8-1.6,1.6C-531.4,389.9-533.4,389.9-533.4,388.3z"/>
	</g>
	<g>
		<path fill="#007D88" d="M-523.9,408.1c-1.2,2.4-2.8,1.6-2-0.8c-1.2,1.6-3.2-0.8-1.2-1.6c-2.8,0-2.8-1.6-0.4-2.4
			c-2.4-0.4-1.2-3.2,0.8-2c-1.2-2.4,0-3.2,1.6-1.6c-0.8-2,2.4-2.4,2-0.4c1.2-2.4,2.8-1.6,2,0.8c1.2-1.6,3.2,0.8,1.2,1.6
			c2.8,0,2.8,1.6,0.4,2.4c2,0.4,0.8,3.2-0.8,2c1.2,2.4,0,3.2-1.6,1.6C-520.7,409.7-523.9,410.1-523.9,408.1z"/>
	</g>
</g>
</svg>
