<?xml version="1.0" encoding="utf-8"?>
<!-- Generator: Adobe Illustrator 16.0.0, SVG Export Plug-In . SVG Version: 6.00 Build 0)  -->
<!DOCTYPE svg PUBLIC "-//W3C//DTD SVG 1.1//EN" "http://www.w3.org/Graphics/SVG/1.1/DTD/svg11.dtd">
<svg version="1.1" id="Layer_1" xmlns="http://www.w3.org/2000/svg" xmlns:xlink="http://www.w3.org/1999/xlink" x="0px" y="0px"
	 width="21px" height="21px" viewBox="0 0 21 21" enable-background="new 0 0 21 21" xml:space="preserve">
<path display="none" fill="#666666" d="M10.5,0C16.299,0,21,4.701,21,10.5S16.299,21,10.5,21S0,16.299,0,10.5S4.701,0,10.5,0z"/>
<g>
	<path fill="#007D88" d="M10.5,6.509c-0.372,0-0.678-0.108-0.918-0.324c-0.24-0.216-0.36-0.498-0.36-0.846
		c0-0.348,0.12-0.633,0.36-0.855c0.24-0.222,0.546-0.333,0.918-0.333s0.678,0.111,0.918,0.333c0.24,0.222,0.359,0.507,0.359,0.855
		c0,0.348-0.119,0.63-0.359,0.846C11.178,6.401,10.872,6.509,10.5,6.509z M9.456,8.057h2.069v8.837H9.456V8.057z"/>
</g>
</svg>
