<?xml version="1.0" encoding="utf-8"?>
<!-- Generator: Adobe Illustrator 18.1.1, SVG Export Plug-In . SVG Version: 6.00 Build 0)  -->
<svg version="1.1" id="Layer_1" xmlns="http://www.w3.org/2000/svg" xmlns:xlink="http://www.w3.org/1999/xlink" x="0px" y="0px"
	 width="592px" height="459.3px" viewBox="0 0 592 459.3" enable-background="new 0 0 592 459.3" xml:space="preserve">
<rect x="-4599.2" y="-976.8" display="none" width="5860.8" height="2575.2"/>
<path d="M-2420.8-37.4l-195.4-195.5c-16-16-41.9-16-57.9,0l-876,876l-369.2-369.2c-16-16-41.9-16-57.9,0l-195.4,195.5
	c-16,16-16,41.8,0,57.9l398.2,398.2l195.4,195.4c16,16.1,41.9,16.1,57.9,0l195.5-195.4l904.9-905
	C-2404.8,4.5-2404.8-21.4-2420.8-37.4z"/>
<path fill="#F5F5F5" d="M588,69.2L522.8,4c-5.3-5.4-14-5.4-19.3,0l-292,292L88.4,172.9c-5.3-5.3-14-5.3-19.3,0L4,238.1
	c-5.3,5.3-5.3,13.9,0,19.3l132.7,132.7l65.1,65.1c5.3,5.4,14,5.4,19.3,0l65.1-65.1L588,88.5C593.3,83.1,593.3,74.5,588,69.2z"/>
</svg>
